<?xml version="1.0" encoding="UTF-8"?>
<svg version="1.1" xmlns="http://www.w3.org/2000/svg" width="512" height="512">
<path d="M0 0 C3.63 0 7.26 0 11 0 C11 0.66 11 1.32 11 2 C11.86625 1.9175 12.7325 1.835 13.625 1.75 C20.38134201 2.25046978 24.8836787 7.5514689 29.69921875 11.921875 C31.82879557 13.84536374 34.00008609 15.70549852 36.1875 17.5625 C39.32726609 20.29572267 42.04681671 23.19781533 44.67578125 26.421875 C46.86036005 29.02532585 48.86610753 30.9147957 51.75 32.75 C56.07494459 35.74419241 60.67936075 39.26693962 63.01171875 44.09375 C63.98095419 46.34553154 63.98095419 46.34553154 67.0625 48 C70 50 70 50 70.875 52.25 C70.936875 53.11625 70.936875 53.11625 71 54 C71.763125 54.0825 72.52625 54.165 73.3125 54.25 C76.54715191 55.15269355 77.35099265 56.13593461 79 59 C79 59.66 79 60.32 79 61 C79.58136719 61.10054687 80.16273438 61.20109375 80.76171875 61.3046875 C83.41338111 62.12841507 84.76291203 63.26325614 86.8125 65.125 C87.50730469 65.75277344 88.20210938 66.38054687 88.91796875 67.02734375 C90.86685125 68.87384593 92.75191077 70.76457248 94.625 72.6875 C96.71812275 74.82797847 98.44988872 76.29055313 101 77.9375 C104.4049436 80.27839872 106.70317429 82.92091207 109.35546875 86.05859375 C113.42933321 90.86788267 118.15490907 94.93307472 122.87109375 99.08984375 C125.34031926 101.30535068 127.65451185 103.65451185 130 106 C133.28813623 108.95217449 136.62617714 111.84758937 140.01171875 114.6875 C143.67178208 117.79387988 146.93089761 120.98051476 150.0625 124.625 C152.40618507 127.34404088 154.55010295 129.55001084 157.5625 131.5 C160.55093937 133.44721841 162.34190354 135.61736958 164.4375 138.5 C167.33776973 142.46150479 170.17540153 144.73991846 174.49609375 147.02734375 C174.99238281 147.34832031 175.48867188 147.66929687 176 148 C176 148.66 176 149.32 176 150 C176.61875 150.226875 177.2375 150.45375 177.875 150.6875 C180 152 180 152 181 154.5625 C181.33 155.366875 181.66 156.17125 182 157 C183.93618425 157.67156616 183.93618425 157.67156616 186 158 C187.75 159.375 187.75 159.375 189 161 C189 161.99 189 162.98 189 164 C189.56589844 164.09925781 190.13179688 164.19851562 190.71484375 164.30078125 C196.31587815 166.01460203 201.07749321 170.39305269 203.9375 175.375 C204.288125 176.24125 204.63875 177.1075 205 178 C205.66 178.33 206.32 178.66 207 179 C208.91944355 184.98109425 209.28590083 190.45674925 209.25396729 196.70236206 C209.25708727 197.64952595 209.26020725 198.59668984 209.26342177 199.57255566 C209.27136726 202.73056359 209.26509152 205.88837753 209.25878906 209.04638672 C209.26150049 211.31702791 209.26506227 213.58766823 209.26940918 215.85830688 C209.2785184 222.015355 209.27499466 228.17233601 209.26865101 234.32938528 C209.26358222 240.77892835 209.26828503 247.22846573 209.27142334 253.67800903 C209.27529385 265.20406184 209.26908297 276.7300804 209.25890467 288.25612785 C209.24997398 298.69208862 209.25151836 309.12800488 209.26074219 319.56396484 C209.27146274 331.69893037 209.2754196 343.83386098 209.26951766 355.96883214 C209.2664041 362.3864881 209.26597167 368.80411345 209.27259064 375.22176743 C209.27838131 381.257921 209.27433563 387.29399079 209.26280212 393.33013535 C209.26016452 395.54159405 209.26090521 397.75305983 209.26532745 399.96451569 C209.27082002 402.99099488 209.2639038 406.01720824 209.25396729 409.04367065 C209.25842873 409.91178529 209.26289017 410.77989992 209.26748681 411.67432106 C209.22965682 417.64476189 208.35526952 423.18936842 207 429 C206.01 429.33 205.02 429.66 204 430 C203.896875 430.5775 203.79375 431.155 203.6875 431.75 C202.62727517 435.2198267 199.94496429 437.08447013 197 439 C193.04181334 440.8964267 189.88437565 441.24900724 185.51262951 441.24609566 C183.53306154 441.2520688 183.53306154 441.2520688 181.5135023 441.25816262 C180.05043861 441.25245679 178.58737563 441.24656561 177.12431335 441.24050903 C175.56907243 441.24138112 174.01383179 441.24313217 172.45859271 441.24568737 C168.18286015 441.2501642 163.90722758 441.24215258 159.63150775 441.23213124 C155.02146397 441.2235039 150.41142593 441.2264164 145.80137634 441.22793579 C137.81346485 441.2289851 129.825586 441.22270373 121.83768272 441.21146011 C110.28848305 441.19521425 98.73929918 441.18999804 87.19008932 441.18748413 C68.45280776 441.18310559 49.7155436 441.16979218 30.97827148 441.15087891 C12.77547289 441.13252422 -5.42732098 441.1183657 -23.63012695 441.10986328 C-24.75192367 441.10933783 -25.87372039 441.10881239 -27.02951095 441.10827102 C-32.65716854 441.10566097 -38.28482617 441.10313354 -43.91248381 441.10064721 C-90.6083346 441.07990977 -137.3041664 441.04467991 -184 441 C-184 440.34 -184 439.68 -184 439 C-184.556875 438.938125 -185.11375 438.87625 -185.6875 438.8125 C-189.027159 437.6391063 -190.71500747 435.65553186 -193 433 C-193.36784131 431.6757713 -193.71202981 430.34386088 -194 429 C-194.99 428.67 -195.98 428.34 -197 428 C-198.02323352 425.28710095 -198.12579995 422.70102503 -198.12863445 419.82325172 C-198.13347112 418.5785086 -198.13347112 418.5785086 -198.1384055 417.30861914 C-198.1368569 416.40220848 -198.1353083 415.49579782 -198.13371277 414.56192017 C-198.13597833 413.59493395 -198.13824388 412.62794774 -198.14057809 411.63165891 C-198.14692164 408.38284519 -198.1460885 405.13407315 -198.14526367 401.88525391 C-198.14825493 399.55945278 -198.15165738 397.23365215 -198.15544128 394.90785217 C-198.16428865 388.58350505 -198.1666197 382.25917145 -198.16725707 375.93481874 C-198.16820567 370.65883026 -198.1718834 365.38284493 -198.17542917 360.10685766 C-198.18325292 348.37259846 -198.18609753 336.63834514 -198.18542381 324.90408356 C-198.18538386 324.20000357 -198.1853439 323.49592357 -198.18530273 322.77050781 C-198.18526185 322.06556798 -198.18522097 321.36062815 -198.18517885 320.6343265 C-198.18477238 309.20903452 -198.19434238 297.78377549 -198.2084411 286.35849304 C-198.22280399 274.62654635 -198.22971134 262.89461572 -198.22884732 251.16266 C-198.22859208 244.57627601 -198.23145787 237.9899293 -198.24202538 231.40355301 C-198.25169122 225.20988339 -198.25179591 219.01628683 -198.24450874 212.82261467 C-198.24346103 210.54819953 -198.2458368 208.27377987 -198.2518692 205.99937248 C-198.25956564 202.89684423 -198.25495977 199.79456975 -198.24723816 196.69204712 C-198.25238172 195.7900979 -198.25752529 194.88814868 -198.26282471 193.95886767 C-198.23681749 189.23650482 -197.82574168 185.43988342 -196 181 C-195.34 181 -194.68 181 -194 181 C-193.896875 180.46375 -193.79375 179.9275 -193.6875 179.375 C-191.86767413 173.0883288 -189.14932339 169.78317637 -184 166 C-183.236875 165.62875 -182.47375 165.2575 -181.6875 164.875 C-179.63229657 164.05794443 -179.63229657 164.05794443 -179 161 C-177.30339084 159.47988374 -175.54321964 158.02984854 -173.75 156.625 C-169.90961773 153.60459124 -166.42917488 150.47785402 -163 147 C-161.21613882 145.38715796 -159.42427309 143.78313043 -157.625 142.1875 C-153.64018051 138.59261593 -150.06403035 134.90092171 -146.609375 130.8046875 C-144.00489158 127.884126 -141.02896378 125.46481088 -138 123 C-133.22779848 119.11487032 -133.22779848 119.11487032 -129.125 114.5625 C-127.20779804 112.25057999 -125.56934082 110.83668311 -123.1875 109.0625 C-117.7567582 104.9939844 -112.92879984 100.3291812 -108.0534668 95.62329102 C-107.11627808 94.72888306 -107.11627808 94.72888306 -106.16015625 93.81640625 C-105.59949463 93.27443604 -105.03883301 92.73246582 -104.46118164 92.17407227 C-103 91 -103 91 -101 91 C-101 90.34 -101 89.68 -101 89 C-99.3203125 87.4921875 -99.3203125 87.4921875 -97.125 85.875 C-96.40570313 85.33617188 -95.68640625 84.79734375 -94.9453125 84.2421875 C-93 83 -93 83 -91 83 C-90.88398438 82.13568359 -90.88398438 82.13568359 -90.765625 81.25390625 C-89.74341658 78.24464984 -88.14833867 76.99832412 -85.75 74.9375 C-84.98171875 74.26589844 -84.2134375 73.59429687 -83.421875 72.90234375 C-81 71 -81 71 -78.3984375 69.4765625 C-75.98105058 67.98833407 -74.63157126 66.64011161 -72.875 64.4375 C-69.13651132 59.98417941 -64.91981316 56.21975155 -60.55078125 52.39453125 C-57.95698978 50.07300261 -57.95698978 50.07300261 -55.90625 47.3828125 C-54.11768638 45.14710797 -52.51332736 43.69673715 -50.1875 42.0625 C-43.27542632 37.05188897 -36.91483593 31.57067402 -31.5 24.9375 C-29.16400002 22.19270003 -26.84377003 20.18751541 -24 18 C-23.319375 17.319375 -22.63875 16.63875 -21.9375 15.9375 C-20.05846838 14.05846838 -18.21025553 12.47350369 -16 11 C-15.34 11 -14.68 11 -14 11 C-13.79375 10.4225 -13.5875 9.845 -13.375 9.25 C-11.44329397 6.08902649 -9.21591615 4.7934917 -6 3 C-2.625 2.25 -2.625 2.25 0 2 C0 1.34 0 0.68 0 0 Z M4 53 C3.2575 54.0209375 3.2575 54.0209375 2.5 55.0625 C0.44959883 57.47172138 -1.48252162 59.34460168 -3.875 61.375 C-7.13580316 64.15272121 -9.84925828 67.076132 -12.56640625 70.375 C-14.80087175 72.90780013 -17.37435387 74.87713717 -20 77 C-20.763125 77.763125 -21.52625 78.52625 -22.3125 79.3125 C-25.36398536 82.36398536 -28.57001629 85.19386175 -31.81640625 88.03515625 C-33.96082746 89.96475172 -36.04988213 91.87300069 -38 94 C-38 94.66 -38 95.32 -38 96 C-39.11955078 96.34417969 -39.11955078 96.34417969 -40.26171875 96.6953125 C-44.34704771 98.64181731 -46.09810542 101.85443632 -48.64453125 105.4921875 C-50.85436614 107.84494704 -51.99465785 108.59900375 -54.82421875 109.875 C-59.57061888 112.06309984 -62.57364369 115.2513804 -66 119.125 C-66.58394531 119.75792969 -67.16789062 120.39085937 -67.76953125 121.04296875 C-70.91721394 124.07372587 -70.91721394 124.07372587 -72 128 C-72.99 128.309375 -72.99 128.309375 -74 128.625 C-80.7736192 131.72957547 -85.21031171 136.00930149 -89.43359375 142.05078125 C-91.64070294 144.79728371 -94.27045668 146.62858641 -97.1328125 148.6484375 C-99.71302353 150.51612163 -101.80314366 152.69597994 -104 155 C-108.83757131 160.02435012 -113.61299817 164.6085411 -119.29296875 168.6640625 C-121.59804835 170.46803784 -123.19243452 172.71041705 -125 175 C-126.051875 175.680625 -127.10375 176.36125 -128.1875 177.0625 C-131.1250367 178.6977523 -131.1250367 178.6977523 -131.875 181.25 C-131.91625 181.8275 -131.9575 182.405 -132 183 C-132.66 183 -133.32 183 -134 183 C-134.515625 183.86625 -135.03125 184.7325 -135.5625 185.625 C-137.94611471 189.4880997 -141.31853399 191.34939974 -145.171875 193.60546875 C-145.77515625 194.06566406 -146.3784375 194.52585938 -147 195 C-147 195.99 -147 196.98 -147 198 C-148.98 198.99 -148.98 198.99 -151 200 C-151 264.68 -151 329.36 -151 396 C-139.78 396 -128.56 396 -117 396 C-116.92652344 387.73195313 -116.92652344 387.73195313 -116.8515625 379.296875 C-116.81617914 375.80597116 -116.78022087 372.31509226 -116.7421875 368.82421875 C-116.68186762 363.28275106 -116.6236832 357.7413183 -116.578125 352.19970703 C-116.54126397 347.73219468 -116.49490173 343.26487293 -116.44193649 338.7975235 C-116.4233969 337.09271842 -116.40828732 335.38787249 -116.39665604 333.68300629 C-116.3797861 331.29595909 -116.35074957 328.90934797 -116.31884766 326.52246094 C-116.31668747 325.81683517 -116.31452728 325.11120941 -116.31230164 324.38420105 C-116.25050395 320.76723853 -116.06819708 318.02396352 -114 315 C-111.13159659 312.38656578 -108.54151809 310.31287712 -105.1875 308.375 C-102.68995912 307.12804824 -102.68995912 307.12804824 -102 304 C-99.671875 302.97265625 -99.671875 302.97265625 -96.75 302.0625 C-93.26062199 300.89787512 -91.12412024 300.10155293 -88.25 297.75 C-85.02397273 295.24086768 -83.03398651 295.63850223 -79 296 C-76.29845153 296.98731849 -73.86662412 298.32187398 -71.375 299.75 C-70.73304688 300.09804688 -70.09109375 300.44609375 -69.4296875 300.8046875 C-65.64431401 302.89905398 -62.34400409 305.23831387 -59 308 C-57.79528171 308.73512402 -56.58736799 309.46506154 -55.375 310.1875 C-51.07714256 313.3183669 -50.07659053 316.91492408 -49 322 C-48.57266612 326.51768539 -48.53547978 331.01115001 -48.5234375 335.546875 C-48.49962292 337.51598827 -48.47580459 339.48510151 -48.4517765 341.45421219 C-48.42196559 344.19408257 -48.40542141 346.93397335 -48.38873291 349.6739502 C-48.35712883 354.45164465 -48.30537568 359.22915549 -48.25234985 364.00665283 C-48.22554271 366.54106407 -48.2040167 369.07553898 -48.18881226 371.61004639 C-48.12010539 379.45152928 -47.67678593 387.18675419 -47 395 C-39.08 395 -31.16 395 -23 395 C-23 343.85 -23 292.7 -23 240 C-3.53 240 15.94 240 36 240 C36.33 291.15 36.66 342.3 37 395 C44.92 395 52.84 395 61 395 C61.10286861 361.63417153 61.10026937 328.27853808 60.53558731 294.91662598 C60.11199314 269.87130849 59.88739017 244.83193913 59.87661743 219.7828331 C59.875006 217.32165881 59.87145501 214.86049394 59.86743164 212.39932251 C59.8616316 208.55882004 59.86131408 204.71835747 59.86568069 200.87785339 C59.86667762 199.46228558 59.8660895 198.04671567 59.86384201 196.63114929 C59.86131098 194.69851719 59.86576089 192.76587964 59.87060547 190.83325195 C59.87140106 189.74897415 59.87219666 188.66469635 59.87301636 187.54756165 C60 185 60 185 61 183 C80.58589973 181.21946366 100.33759988 182.59036666 120 183 C120.495 288.435 120.495 288.435 121 396 C134.53 396 148.06 396 162 396 C162 330.99 162 265.98 162 199 C160.02 198.01 158.04 197.02 156 196 C154.05859375 194.203125 154.05859375 194.203125 152.4375 192.25 C151.84710938 191.54746094 151.25671875 190.84492188 150.6484375 190.12109375 C149.18106841 188.23298613 147.86749322 186.31378155 146.5625 184.3125 C144.21292048 180.88149149 141.4181035 179.21908237 137.84765625 177.18359375 C135.31263188 175.55967751 133.82359023 173.3706673 132 171 C131.030625 170.360625 130.06125 169.72125 129.0625 169.0625 C125.65248128 166.76595678 123.62138012 164.14565614 121 161 C120.071875 160.401875 119.14375 159.80375 118.1875 159.1875 C114.42976785 156.60866421 111.84685381 153.59474761 108.9296875 150.12109375 C107.07445957 148.08184523 105.30930667 146.49961201 103 145 C102.34 145 101.68 145 101 145 C100.59007812 144.13761719 100.59007812 144.13761719 100.171875 143.2578125 C97.62870142 138.35796474 95.02127808 133.77741465 89.75 131.75 C88.38875 131.37875 88.38875 131.37875 87 131 C86.71382812 130.41605469 86.42765625 129.83210938 86.1328125 129.23046875 C84.63977174 126.29072298 82.62274638 124.70077843 80.125 122.5625 C76.65849504 119.5875144 73.83690443 116.57194819 71 113 C70.236875 112.566875 69.47375 112.13375 68.6875 111.6875 C66.07825346 110.04913589 64.7117199 108.64119291 62.75 106.3125 C58.88542689 101.73226521 54.55488015 97.87915617 50 94 C49.44054687 93.51402344 48.88109375 93.02804688 48.3046875 92.52734375 C45.93402439 90.49800648 43.62853963 88.78015611 40.9375 87.1875 C38.13135976 85.09782109 37.19167542 83.92395017 35.5 81 C33.26738506 77.14497034 30.99341269 75.12415569 27 73 C26.2575 72.835 25.515 72.67 24.75 72.5 C24.1725 72.335 23.595 72.17 23 72 C22.71253906 71.40960938 22.42507813 70.81921875 22.12890625 70.2109375 C20.81915703 67.64582311 19.26933556 66.10732143 17.1875 64.125 C14.68712113 61.70600778 12.37812481 59.31381401 10.25 56.5625 C8.06746786 54.0768384 7.23745271 53.23981131 4 53 Z " fill="#FD6D1A" transform="translate(251,34)"/>
<path d="M0 0 C1.32 0 2.64 0 4 0 C2.6581656 4.02550319 0.5772427 4.88285636 -3 7 C-3.66 7 -4.32 7 -5 7 C-5.2475 7.99 -5.495 8.98 -5.75 10 C-6.95812141 14.28095196 -8.90821294 18.09059215 -11 22 C-10.34 22 -9.68 22 -9 22 C-9.00138269 23.5123696 -9.00138269 23.5123696 -9.00279331 25.05529213 C-9.02511278 49.72588317 -9.04148216 74.39647287 -9.05181217 99.06707191 C-9.056942 110.99816881 -9.0639206 122.92925898 -9.07543945 134.86035156 C-9.08548853 145.27414148 -9.09187744 155.68792653 -9.09408849 166.10172117 C-9.09537846 171.60239286 -9.09835318 177.10305063 -9.10573006 182.6037178 C-9.15487149 211.55189626 -9.15487149 211.55189626 -8.61889648 240.49365234 C-8.58842004 241.68654688 -8.55794359 242.87944141 -8.52654362 244.10848427 C-8.3267737 249.78578931 -7.74704021 254.60550277 -6 260 C-6 261.32 -6 262.64 -6 264 C-7.32 263.67 -8.64 263.34 -10 263 C-10 262.01 -10 261.02 -10 260 C-10.99 259.67 -11.98 259.34 -13 259 C-14.34549016 254.96352952 -14.14453524 251.07026321 -14.14044189 246.86094666 C-14.14341302 245.91397134 -14.14638414 244.96699602 -14.1494453 243.99132448 C-14.15814758 240.80402193 -14.15964186 237.61675687 -14.16113281 234.42944336 C-14.16576001 232.1496879 -14.17078453 229.86993322 -14.17617798 227.59017944 C-14.18931595 221.38533837 -14.19574999 215.18050813 -14.20018864 208.97565532 C-14.20311792 205.09921736 -14.20722251 201.22278237 -14.21169281 197.3463459 C-14.22380503 186.60871304 -14.23418522 175.87108406 -14.2375679 165.13344479 C-14.23778747 164.44611235 -14.23800703 163.75877991 -14.23823325 163.05061922 C-14.23845153 162.36165523 -14.23866981 161.67269124 -14.2388947 160.96284956 C-14.23933816 159.56678577 -14.23978473 158.17072199 -14.24023438 156.7746582 C-14.2404558 156.08216457 -14.24067723 155.38967094 -14.24090537 154.67619265 C-14.24484945 143.46691878 -14.26229055 132.25771009 -14.2855939 121.04846137 C-14.30933896 109.53348635 -14.32151356 98.01855327 -14.32293582 86.5035525 C-14.32398356 80.04108174 -14.32988456 73.57870281 -14.34775543 67.11625481 C-14.36424856 61.03336544 -14.36638545 54.95063678 -14.35761642 48.867733 C-14.35684665 46.63853462 -14.36118093 44.40932755 -14.37107468 42.18015099 C-14.38381812 39.12922345 -14.37790403 36.078863 -14.36749268 33.02793884 C-14.37554908 32.15252266 -14.38360548 31.27710648 -14.39190602 30.37516254 C-14.34262046 24.16988467 -13.04951889 18.84579227 -11 13 C-10.34 13 -9.68 13 -9 13 C-8.9175 12.0925 -8.835 11.185 -8.75 10.25 C-7.8962746 6.55052329 -6.93346994 5.32952025 -4 3 C-3.01 2.67 -2.02 2.34 -1 2 C-0.67 1.34 -0.34 0.68 0 0 Z " fill="#F8580E" transform="translate(69,202)"/>
<path d="M0 0 C0.33 0.66 0.66 1.32 1 2 C0.01 2.66 -0.98 3.32 -2 4 C-2.30673951 6.63649043 -2.41563975 9.04108616 -2.39872742 11.681427 C-2.40537424 12.48351211 -2.41202107 13.28559723 -2.41886932 14.11198795 C-2.43760411 16.81453169 -2.43488705 19.51663678 -2.43237305 22.21923828 C-2.44138383 24.15054963 -2.45170934 26.08185523 -2.46325684 28.01315308 C-2.49093336 33.26908029 -2.50012576 38.52489932 -2.50611091 43.78088999 C-2.51546696 49.26891814 -2.54166798 54.75686459 -2.56611633 60.24484253 C-2.60986148 70.6428878 -2.63835915 81.04091729 -2.66143972 91.43902671 C-2.68844852 103.2744449 -2.73236261 115.10978123 -2.77772844 126.94514108 C-2.87068948 151.29671815 -2.94171797 175.64831738 -3 200 C8.22 200 19.44 200 31 200 C30.98259766 191.71455078 30.98259766 191.71455078 30.96484375 183.26171875 C30.95973535 179.76627487 30.95492145 176.27083558 30.95117188 172.77539062 C30.9451898 167.22500658 30.93810637 161.67463899 30.92456055 156.12426758 C30.91371004 151.65039197 30.90771855 147.17653401 30.90512276 142.70264626 C30.90327242 140.99418675 30.89965929 139.28572823 30.89426994 137.57727623 C30.88703084 135.18780795 30.88601028 132.798413 30.88647461 130.40893555 C30.88287933 129.69971451 30.87928406 128.99049347 30.87557983 128.25978088 C30.88198584 125.22136302 31.03058633 122.90824101 32 120 C33.98 120 35.96 120 38 120 C38 121.98 38 123.96 38 126 C37.01 126 36.02 126 35 126 C35.01474869 126.90788773 35.02949738 127.81577545 35.04469299 128.75117493 C35.18264974 137.30024762 35.31561927 145.84938012 35.4429636 154.39861774 C35.50861166 158.79403294 35.57619918 163.1894006 35.64819336 167.5847168 C35.71757903 171.82511154 35.78190371 176.06555542 35.84269524 180.30608177 C35.86680173 181.92525211 35.89274284 183.54439618 35.92053413 185.16350746 C35.95909859 187.42838053 35.99118453 189.69325852 36.02172852 191.95825195 C36.04171402 193.24842728 36.06169952 194.5386026 36.08229065 195.86787415 C36 199 36 199 35 202 C31.38195198 204.74163708 27.10044911 204.27121897 22.76953125 204.23046875 C21.9785051 204.23001053 21.18747894 204.22955231 20.3724823 204.2290802 C18.70574436 204.22606587 17.03900904 204.21820412 15.37231445 204.20581055 C12.81126015 204.18749113 10.25056627 204.18530139 7.68945312 204.18554688 C6.07030935 204.1806338 4.45116804 204.1748064 2.83203125 204.16796875 C2.0622847 204.16685593 1.29253815 204.1657431 0.49946594 204.16459656 C-4.88393011 204.11606989 -4.88393011 204.11606989 -6 203 C-6.10441936 200.43970419 -6.14332629 197.90614638 -6.14044189 195.34512329 C-6.14341302 194.53375864 -6.14638414 193.722394 -6.1494453 192.88644254 C-6.15817099 190.14645278 -6.15964379 187.4065065 -6.16113281 184.66650391 C-6.16575824 182.7106568 -6.17078252 180.75481059 -6.17617798 178.79896545 C-6.18933023 173.47048112 -6.19575239 168.14200941 -6.20018864 162.81351137 C-6.20311472 159.48824549 -6.20721862 156.1629831 -6.21169281 152.83771896 C-6.22537497 142.44465259 -6.23503819 132.05159414 -6.2388947 121.65851939 C-6.24337787 109.64092208 -6.26093478 97.62343837 -6.2898953 85.60587561 C-6.31147597 76.33029909 -6.32159704 67.05475461 -6.32293582 57.77915323 C-6.32398642 52.232929 -6.32994808 46.68681146 -6.34775543 41.14061356 C-6.36417384 35.92532433 -6.36642208 30.71022269 -6.35761642 25.49491692 C-6.3568427 23.57722791 -6.36123255 21.65952907 -6.37107468 19.74186516 C-6.38369387 17.13063136 -6.37797254 14.52007206 -6.36749268 11.90884399 C-6.37554908 11.14396593 -6.38360548 10.37908786 -6.39190602 9.59103167 C-6.34385485 4.49739837 -6.34385485 4.49739837 -4.66453171 2.06819725 C-3 1 -3 1 0 0 Z " fill="#EA6F3E" transform="translate(103,230)"/>
<path d="M0 0 C2.1875 0.3125 2.1875 0.3125 4 1 C4 1.66 4 2.32 4 3 C3.34 3 2.68 3 2 3 C1.67 3.99 1.34 4.98 1 6 C0.34 6 -0.32 6 -1 6 C-1 72.66 -1 139.32 -1 208 C-2.32 207.67 -3.64 207.34 -5 207 C-4.98839844 206.43152344 -4.97679688 205.86304688 -4.96484375 205.27734375 C-4.95130859 204.11912109 -4.95130859 204.11912109 -4.9375 202.9375 C-4.92589844 202.18339844 -4.91429688 201.42929687 -4.90234375 200.65234375 C-4.95171726 197.89899354 -4.95171726 197.89899354 -5.4973259 194.8077755 C-6.0047706 190.9638625 -6.13158575 187.29915301 -6.14044189 183.42324829 C-6.14341302 182.69266154 -6.14638414 181.96207478 -6.1494453 181.20934904 C-6.15806841 178.7783888 -6.15963507 176.34747818 -6.16113281 173.91650391 C-6.1657654 172.16654863 -6.17079065 170.41659435 -6.17617798 168.66664124 C-6.18925873 163.92486751 -6.19573809 159.18310792 -6.20018864 154.44131899 C-6.20312544 151.47611967 -6.20723131 148.51092417 -6.21169281 145.54572678 C-6.22535431 136.2600518 -6.23502842 126.9743856 -6.2388947 117.68870127 C-6.24337685 106.98430996 -6.26093774 96.28004625 -6.2898953 85.57569373 C-6.31152887 77.29012753 -6.32159982 69.00459721 -6.32293582 60.71900308 C-6.32398234 55.77518001 -6.32985802 50.83147711 -6.34775543 45.88768387 C-6.36426582 41.23698345 -6.36637723 36.58649318 -6.35761642 31.93577385 C-6.35684773 30.23345691 -6.3611666 28.53112853 -6.37107468 26.82884026 C-6.47893067 7.1366109 -6.47893067 7.1366109 -1.53264236 1.2552433 C-0.77398439 0.63389787 -0.77398439 0.63389787 0 0 Z " fill="#FD5C0D" transform="translate(99,226)"/>
<path d="M0 0 C1.98 0 3.96 0 6 0 C1.97970113 4.36489592 -0.95282152 6.74385199 -6.95497113 7.24839699 C-8.61074163 7.24725783 -8.61074163 7.24725783 -10.29996204 7.24609566 C-11.57787328 7.25007775 -12.85578451 7.25405985 -14.17242032 7.25816262 C-15.58832103 7.25245685 -17.00422099 7.24656567 -18.42012024 7.24050903 C-19.92586359 7.24138116 -21.43160664 7.24313228 -22.93734807 7.24568737 C-27.076263 7.25016343 -31.2150746 7.24215365 -35.35397637 7.23213124 C-39.81677951 7.22350279 -44.27957673 7.22641648 -48.74238586 7.22793579 C-56.47492671 7.22898502 -64.20743384 7.2227044 -71.9399662 7.21146011 C-83.11993686 7.19521329 -94.29989119 7.18999794 -105.47987237 7.18748413 C-123.61818262 7.18310574 -141.7564749 7.16979274 -159.89477539 7.15087891 C-177.5155427 7.13252383 -195.13630514 7.1183655 -212.75708008 7.10986328 C-214.38600924 7.10907511 -214.38600924 7.10907511 -216.04784606 7.10827102 C-221.49569479 7.10566096 -226.94354356 7.10313354 -232.39139235 7.10064721 C-277.59427402 7.07991024 -322.79713608 7.04468079 -368 7 C-367.67 6.34 -367.34 5.68 -367 5 C-365.86917657 4.99739563 -365.86917657 4.99739563 -364.71550822 4.99473864 C-320.06538783 4.89178057 -275.41528242 4.78368325 -230.76519082 4.66888306 C-225.40775101 4.65511296 -220.05031109 4.64138595 -214.69287109 4.62768555 C-213.62627086 4.62495724 -212.55967063 4.62222894 -211.46074918 4.61941796 C-194.17519896 4.57530528 -176.8896422 4.53468462 -159.60408053 4.49534739 C-141.87641664 4.45492659 -124.14876492 4.41076959 -106.42111897 4.36312145 C-95.47628211 4.3338225 -84.53144618 4.30746138 -73.58659348 4.28482103 C-66.08818186 4.26903117 -58.58978513 4.24962252 -51.09139004 4.22733159 C-46.76087544 4.21456601 -42.43037232 4.20343099 -38.09984398 4.19658089 C-34.13847562 4.19027963 -30.17714684 4.17945405 -26.2158002 4.1649667 C-24.77967285 4.16052451 -23.34353914 4.15777015 -21.90740523 4.15683801 C-19.96079218 4.15533229 -18.01418763 4.14717995 -16.06759262 4.1386652 C-14.44314905 4.13467814 -14.44314905 4.13467814 -12.78588843 4.13061053 C-10.34145087 4.01600821 -8.33880007 3.66307368 -6 3 C-4.58465222 2.93543121 -3.16662311 2.91388961 -1.75 2.9375 C0.10625 2.9684375 0.10625 2.9684375 2 3 C2 2.34 2 1.68 2 1 C1.34 0.67 0.68 0.34 0 0 Z " fill="#F6772B" transform="translate(447,468)"/>
<path d="M0 0 C0.99 0 1.98 0 3 0 C4.24315973 3.72947918 4.13473676 7.18378935 4.12025452 11.06742859 C4.12110894 11.89895299 4.12196337 12.7304774 4.12284368 13.58719951 C4.1244954 16.38326861 4.11898211 19.17927819 4.11352539 21.9753418 C4.11324343 23.97575886 4.11340143 25.97617602 4.1139679 27.97659302 C4.11425551 33.41633355 4.10836455 38.85605215 4.10139394 44.29578757 C4.09515445 49.97728601 4.09455613 55.65878492 4.09336853 61.34028625 C4.09025698 72.10310367 4.08204594 82.86591097 4.07201904 93.62872392 C4.06085246 105.88007053 4.05534608 118.13141761 4.05032361 130.38276803 C4.0398632 155.58851764 4.02226714 180.79425825 4 206 C3.01 206.33 2.02 206.66 1 207 C0.81037172 197.43787204 0.64830947 187.87534604 0.5 178.3125 C0.48812275 177.54743385 0.4762455 176.78236771 0.46400833 175.99411774 C-0.11684845 137.9560239 -0.08426698 99.91642526 -0.0625 61.875 C-0.06207577 61.111889 -0.06165154 60.34877801 -0.06121445 59.56254244 C-0.04999259 39.70834956 -0.02965074 19.85417434 0 0 Z " fill="#F95109" transform="translate(313,223)"/>
<path d="M0 0 C19.47 0 38.94 0 59 0 C60.37828563 2.75657127 60.12278012 4.96268772 60.12025452 8.04898071 C60.12231651 9.98415306 60.12231651 9.98415306 60.12442017 11.9584198 C60.12088077 13.39627098 60.11724596 14.83412193 60.11352539 16.27197266 C60.11324345 17.77963764 60.11340139 19.28730275 60.1139679 20.79496765 C60.11425559 24.89597005 60.10836332 28.99694339 60.10139394 33.09793901 C60.09515581 37.3807514 60.09455624 41.66356439 60.09336853 45.94638062 C60.09025658 54.06011857 60.08204501 62.17384309 60.07201904 70.28757513 C60.0608537 79.52323597 60.05534639 88.75889744 60.05032361 97.99456334 C60.03986229 116.99638339 60.02206476 135.99819013 60 155 C67.59 155 75.18 155 83 155 C83 155.33 83 155.66 83 156 C74.75 156 66.5 156 58 156 C58 105.18 58 54.36 58 2 C39.52 2 21.04 2 2 2 C1.67 52.82 1.34 103.64 1 156 C-7.91 156 -16.82 156 -26 156 C-26.01981934 154.10427246 -26.03963867 152.20854492 -26.06005859 150.25537109 C-26.12829128 143.93698403 -26.20509671 137.61874476 -26.28752708 131.30052757 C-26.3371175 127.47610351 -26.38344504 123.65170222 -26.421875 119.82714844 C-26.45920573 116.12467171 -26.50568251 112.42240512 -26.55806351 108.72011185 C-26.57635749 107.3194313 -26.59155367 105.91870617 -26.60334396 104.51795578 C-26.40603873 87.55575721 -26.40603873 87.55575721 -32 72 C-31.505 71.01 -31.505 71.01 -31 70 C-25.67458282 75.85795889 -24.76168779 81.75102375 -24.68115234 89.49584961 C-24.67110672 90.20888245 -24.6610611 90.92191528 -24.65071106 91.65655518 C-24.6200822 93.98847729 -24.60290117 96.3202857 -24.5859375 98.65234375 C-24.56720946 100.27902694 -24.54763484 101.90570059 -24.5272522 103.53236389 C-24.47609769 107.79507803 -24.43638314 112.05782361 -24.39910889 116.32067871 C-24.35896418 120.67805654 -24.30791977 125.03530548 -24.2578125 129.39257812 C-24.16125086 137.92830352 -24.07779186 146.46408288 -24 155 C-16.08 155 -8.16 155 0 155 C0 103.85 0 52.7 0 0 Z " fill="#F1A268" transform="translate(228,274)"/>
<path d="M0 0 C0.66 0.33 1.32 0.66 2 1 C0 4 0 4 -2.5 5.1875 C-6.22127016 7.88542087 -6.19893979 10.55775702 -7 15 C-7.66 15 -8.32 15 -9 15 C-10.57924014 21.75788419 -11.28795861 28.09746217 -11.24723816 35.02793884 C-11.24965257 35.98583409 -11.25206699 36.94372934 -11.25455457 37.93065172 C-11.26015145 41.11261182 -11.2515591 44.29436756 -11.24291992 47.47631836 C-11.24399375 49.76846369 -11.24593394 52.06060874 -11.24867249 54.35275269 C-11.25350589 60.55673654 -11.24588527 66.7606481 -11.23571944 72.96462321 C-11.22692022 79.45880088 -11.22869671 85.9529764 -11.2290802 92.44715881 C-11.22814479 103.34409819 -11.21952927 114.24100911 -11.20581055 125.13793945 C-11.1917022 136.35018418 -11.18464083 147.56240448 -11.18530273 158.7746582 C-11.18534269 159.46630473 -11.18538265 160.15795125 -11.18542381 160.87055676 C-11.18546417 161.56101339 -11.18550452 162.25147001 -11.1855461 162.96284956 C-11.18620061 175.09068646 -11.18105833 187.21851157 -11.17275429 199.3463459 C-11.169219 204.51016886 -11.1673907 209.67398831 -11.16686058 214.83781242 C-11.16585852 220.90924451 -11.15977317 226.98065084 -11.14969444 233.05207443 C-11.1467661 235.28421305 -11.14554475 237.51635464 -11.14612198 239.7484951 C-11.14661038 242.78600661 -11.14097973 245.82344526 -11.13371277 248.86094666 C-11.13526137 249.75197789 -11.13680997 250.64300912 -11.1384055 251.5610413 C-11.12492098 254.9544432 -11.08056734 257.75829797 -10 261 C-9.34 261.33 -8.68 261.66 -8 262 C-7.375 264.5625 -7.375 264.5625 -7 267 C-6.34 267 -5.68 267 -5 267 C-5 267.99 -5 268.98 -5 270 C-5.66 270 -6.32 270 -7 270 C-9.29648649 267.4385343 -10 266.52032428 -10 263 C-10.99 262.67 -11.98 262.34 -13 262 C-14.02323352 259.28710095 -14.12579995 256.70102503 -14.12863445 253.82325172 C-14.1318589 252.99342297 -14.13508335 252.16359422 -14.1384055 251.30861914 C-14.1368569 250.40220848 -14.1353083 249.49579782 -14.13371277 248.56192017 C-14.13597833 247.59493395 -14.13824388 246.62794774 -14.14057809 245.63165891 C-14.14692164 242.38284519 -14.1460885 239.13407315 -14.14526367 235.88525391 C-14.14825493 233.55945278 -14.15165738 231.23365215 -14.15544128 228.90785217 C-14.16428865 222.58350505 -14.1666197 216.25917145 -14.16725707 209.93481874 C-14.16820567 204.65883026 -14.1718834 199.38284493 -14.17542917 194.10685766 C-14.18325292 182.37259846 -14.18609753 170.63834514 -14.18542381 158.90408356 C-14.18538386 158.20000357 -14.1853439 157.49592357 -14.18530273 156.77050781 C-14.18526185 156.06556798 -14.18522097 155.36062815 -14.18517885 154.6343265 C-14.18477238 143.20903452 -14.19434238 131.78377549 -14.2084411 120.35849304 C-14.22280399 108.62654635 -14.22971134 96.89461572 -14.22884732 85.16266 C-14.22859208 78.57627601 -14.23145787 71.9899293 -14.24202538 65.40355301 C-14.25169122 59.20988339 -14.25179591 53.01628683 -14.24450874 46.82261467 C-14.24346103 44.54819953 -14.2458368 42.27377987 -14.2518692 39.99937248 C-14.25956564 36.89684423 -14.25495977 33.79456975 -14.24723816 30.69204712 C-14.25238172 29.7900979 -14.25752529 28.88814868 -14.26282471 27.95886767 C-14.23681749 23.23650482 -13.82574168 19.43988342 -12 15 C-11.34 15 -10.68 15 -10 15 C-9.8453125 14.195625 -9.8453125 14.195625 -9.6875 13.375 C-7.86903987 7.09304681 -5.08394275 3.84120119 0 0 Z " fill="#ECA579" transform="translate(67,200)"/>
<path d="M0 0 C3.30139859 1.76074592 3.96480732 2.8891354 5.11693954 6.51860237 C6.19792734 11.26121354 6.27874756 15.85579742 6.25396729 20.70236206 C6.25708727 21.64952595 6.26020725 22.59668984 6.26342177 23.57255566 C6.27136726 26.73056359 6.26509152 29.88837753 6.25878906 33.04638672 C6.26150049 35.31702791 6.26506227 37.58766823 6.26940918 39.85830688 C6.2785184 46.015355 6.27499466 52.17233601 6.26865101 58.32938528 C6.26358222 64.77892835 6.26828503 71.22846573 6.27142334 77.67800903 C6.27529385 89.20406184 6.26908297 100.7300804 6.25890467 112.25612785 C6.24997398 122.69208862 6.25151836 133.12800488 6.26074219 143.56396484 C6.27146274 155.69893037 6.2754196 167.83386098 6.26951766 179.96883214 C6.2664041 186.3864881 6.26597167 192.80411345 6.27259064 199.22176743 C6.27838131 205.257921 6.27433563 211.29399079 6.26280212 217.33013535 C6.26016452 219.54159405 6.26090521 221.75305983 6.26532745 223.96451569 C6.27082002 226.99099488 6.2639038 230.01720824 6.25396729 233.04367065 C6.26065945 234.3458426 6.26065945 234.3458426 6.26748681 235.67432106 C6.22965682 241.64476189 5.35526952 247.18936842 4 253 C3.01 253.33 2.02 253.66 1 254 C0.67 254.99 0.34 255.98 0 257 C0 255.68 0 254.36 0 253 C0.66 253 1.32 253 2 253 C1.98839844 252.36191406 1.97679687 251.72382813 1.96484375 251.06640625 C1.95582031 250.24011719 1.94679688 249.41382813 1.9375 248.5625 C1.92009766 247.32693359 1.92009766 247.32693359 1.90234375 246.06640625 C2 244 2 244 3 243 C3.11042818 240.00415641 3.15497486 237.03087392 3.15821838 234.03416443 C3.16315636 233.0818423 3.16809434 232.12952018 3.17318195 231.14833981 C3.18863873 227.93149598 3.19693959 224.71467222 3.20532227 221.49780273 C3.21489437 219.2021161 3.22490405 216.90643125 3.23532104 214.61074829 C3.26244854 208.3568861 3.28341549 202.10301631 3.30332303 195.84912753 C3.32513438 189.32144696 3.35254672 182.79379005 3.37937927 176.26612854 C3.42368415 165.30283624 3.46450823 154.33953599 3.50268555 143.3762207 C3.54202486 132.08194024 3.58344731 120.78767059 3.62768555 109.4934082 C3.63040982 108.79770096 3.63313409 108.10199371 3.63594092 107.38520443 C3.64962014 103.89518632 3.66334046 100.40516838 3.67708123 96.91515052 C3.79109426 67.94345644 3.8978191 38.97173814 4 10 C3.34 10 2.68 10 2 10 C2 8.02 2 6.04 2 4 C1.34 4 0.68 4 0 4 C0 2.68 0 1.36 0 0 Z " fill="#F6B292" transform="translate(454,210)"/>
<path d="M0 0 C1.11830704 0.02123932 2.23661407 0.04247864 3.3888092 0.06436157 C5.73785996 0.1104075 8.08685617 0.1593161 10.43579102 0.2109375 C14.04757539 0.28933206 17.65944841 0.35621498 21.27148438 0.421875 C23.5560035 0.46806691 25.8405094 0.5149183 28.125 0.5625 C29.75295753 0.59227432 29.75295753 0.59227432 31.4138031 0.62265015 C32.40896439 0.64582306 33.40412567 0.66899597 34.42944336 0.69287109 C35.30910263 0.71143158 36.1887619 0.72999207 37.09507751 0.74911499 C39.09765625 0.9140625 39.09765625 0.9140625 40.09765625 1.9140625 C40.19552844 4.65783143 40.22758967 7.37642228 40.21791077 10.12062073 C40.21876519 10.99127181 40.21961962 11.86192288 40.22049993 12.75895733 C40.22215741 15.69943272 40.21662901 18.63985206 40.21118164 21.58032227 C40.2108998 23.67896524 40.21105744 25.77760831 40.21162415 27.87625122 C40.21191225 33.5929604 40.20601353 39.30964879 40.19905019 45.02635312 C40.19281869 50.99347406 40.19221301 56.96059542 40.19102478 62.92771912 C40.18791086 74.23600879 40.17969665 85.54428886 40.16967529 96.85257429 C40.15851604 109.72296801 40.15300418 122.59336219 40.14797986 135.46375954 C40.13751409 161.94720043 40.11916786 188.43062812 40.09765625 214.9140625 C53.62765625 214.9140625 67.15765625 214.9140625 81.09765625 214.9140625 C81.09765625 215.2440625 81.09765625 215.5740625 81.09765625 215.9140625 C67.23765625 215.9140625 53.37765625 215.9140625 39.09765625 215.9140625 C39.09765625 145.6240625 39.09765625 75.3340625 39.09765625 2.9140625 C10.88265625 3.4090625 10.88265625 3.4090625 -17.90234375 3.9140625 C-20.33125343 7.55742701 -20.17440569 9.33714556 -20.22119141 13.68041992 C-20.23123703 14.36360794 -20.24128265 15.04679596 -20.25163269 15.75068665 C-20.28250261 18.00695969 -20.29951007 20.26311387 -20.31640625 22.51953125 C-20.33511487 24.08467128 -20.35468806 25.64980119 -20.37509155 27.21492004 C-20.42645123 31.33301838 -20.46605631 35.45114944 -20.50323486 39.56939697 C-20.54325054 43.77225869 -20.59435397 47.97498387 -20.64453125 52.17773438 C-20.74133592 60.42308386 -20.82572606 68.66850084 -20.90234375 76.9140625 C-21.23234375 76.9140625 -21.56234375 76.9140625 -21.90234375 76.9140625 C-21.94865064 67.44787312 -21.98420454 57.98172262 -22.00596809 48.51544476 C-22.01641263 44.12003776 -22.03058402 39.72470815 -22.05322266 35.3293457 C-22.07492719 31.08888295 -22.08690733 26.84849473 -22.09209824 22.60798073 C-22.09579829 20.98882689 -22.10302344 19.36967721 -22.11380386 17.75055504 C-22.12828714 15.48555 -22.13032304 13.22085432 -22.12939453 10.95581055 C-22.13383575 9.66563522 -22.13827698 8.3754599 -22.14285278 7.04618835 C-21.90234375 3.9140625 -21.90234375 3.9140625 -19.90234375 0.9140625 C-13.3146527 -0.43591708 -6.69587969 -0.1493912 0 0 Z " fill="#FFC2BF" transform="translate(331.90234375,215.0859375)"/>
<path d="M0 0 C0.66 0 1.32 0 2 0 C2 0.66 2 1.32 2 2 C2.63808594 2.10957031 3.27617187 2.21914062 3.93359375 2.33203125 C4.75988281 2.49058594 5.58617187 2.64914063 6.4375 2.8125 C7.67306641 3.03873047 7.67306641 3.03873047 8.93359375 3.26953125 C9.95646484 3.63111328 9.95646484 3.63111328 11 4 C12.18999689 7.56999067 11.63692698 9.3159107 11 13 C10.90065087 15.66612276 10.84537469 18.30678708 10.84178162 20.97262573 C10.83684364 21.75771078 10.83190566 22.54279583 10.82681805 23.35167134 C10.81150545 25.972564 10.80309941 28.59343229 10.79467773 31.21435547 C10.7850943 33.09699211 10.77508395 34.97962663 10.76467896 36.86225891 C10.73767424 41.96709905 10.71664069 47.0719484 10.69667697 52.17682028 C10.67479005 57.51398484 10.64741461 62.85112117 10.62062073 68.18826294 C10.57073042 78.29222314 10.52577801 88.39619904 10.48259836 98.5001899 C10.43319469 110.00436097 10.37828817 121.50850372 10.32291877 133.01264739 C10.20915495 156.67507183 10.10230372 180.33752344 10 204 C9.34 204 8.68 204 8 204 C8 138.66 8 73.32 8 6 C6.02 5.34 4.04 4.68 2 4 C0.625 1.875 0.625 1.875 0 0 Z " fill="#F08D50" transform="translate(405,227)"/>
<path d="M0 0 C2.1534727 3.23020905 2.25471007 4.11032834 2.2784729 7.83607483 C2.2896367 8.83536609 2.3008005 9.83465734 2.31230259 10.86423016 C2.31446246 11.96227883 2.31662233 13.06032751 2.31884766 14.19165039 C2.32889045 15.35224629 2.33893324 16.5128422 2.34928036 17.70860767 C2.37497571 20.91434083 2.39178808 24.11997665 2.40470433 27.3257823 C2.42047995 30.7341747 2.44737706 34.14248085 2.47288513 37.55081177 C2.52022614 44.12103657 2.55686744 50.69127869 2.58967119 57.26159048 C2.61626311 62.53352339 2.64737223 67.8054124 2.68161011 73.07730103 C2.68643491 73.82103511 2.6912597 74.5647692 2.69623071 75.33104068 C2.70598278 76.8331794 2.71573643 78.33531812 2.72549164 79.83745682 C3.00057192 122.55786546 3.1491207 165.2787798 3 208 C2.34 207.67 1.68 207.34 1 207 C0.19092163 162.06130449 -0.13904412 117.13958779 -0.07202661 72.19407606 C-0.0604533 64.28228179 -0.05525517 56.37048614 -0.05032361 48.4586854 C-0.04012607 32.30578037 -0.02277791 16.15289253 0 0 Z " fill="#E86226" transform="translate(311,222)"/>
<path d="M0 0 C18.81 0 37.62 0 57 0 C57 70.29 57 140.58 57 213 C56.67 213 56.34 213 56 213 C56 143.37 56 73.74 56 2 C26.71286404 0.83318353 26.71286404 0.83318353 -2 4 C-1.34 2.68 -0.68 1.36 0 0 Z " fill="#E07632" transform="translate(314,218)"/>
<path d="M0 0 C0.99 0 1.98 0 3 0 C3 0.66 3 1.32 3 2 C2.34 2 1.68 2 1 2 C0.67 2.99 0.34 3.98 0 5 C-0.66 5 -1.32 5 -2 5 C-2.33 70.67 -2.66 136.34 -3 204 C-3.33 204 -3.66 204 -4 204 C-4.68107622 157.22391542 -5.1363688 110.44653852 -5.23217773 63.66537476 C-5.24255333 58.76007226 -5.26000798 53.85487259 -5.28344727 48.94961548 C-5.31071937 43.13244073 -5.3231558 37.31542109 -5.32407379 31.4981842 C-5.32675096 29.34393573 -5.33450702 27.18968692 -5.3476181 25.03547668 C-5.36458257 22.08246755 -5.36290516 19.13003943 -5.35644531 16.17700195 C-5.36566261 15.31381253 -5.37487991 14.45062311 -5.38437653 13.56127644 C-5.34315012 7.66659673 -4.27479696 4.27479696 0 0 Z " fill="#F94D06" transform="translate(100,227)"/>
<path d="M0 0 C0 0.66 0 1.32 0 2 C-0.66 2 -1.32 2 -2 2 C-2 2.99 -2 3.98 -2 5 C-3.375 6.6875 -3.375 6.6875 -5 8 C-5.66 8 -6.32 8 -7 8 C-7.66 9.32 -8.32 10.64 -9 12 C-9.66 12 -10.32 12 -11 12 C-11 12.99 -11 13.98 -11 15 C-12.65 15.33 -14.3 15.66 -16 16 C-16 16.66 -16 17.32 -16 18 C-17.65 18.66 -19.3 19.32 -21 20 C-21 21.65 -21 23.3 -21 25 C-22.32 25 -23.64 25 -25 25 C-25.495 27.475 -25.495 27.475 -26 30 C-27.093125 30.2475 -28.18625 30.495 -29.3125 30.75 C-33.15281101 32.05180034 -33.92486999 32.72347893 -36 36 C-36.66 36 -37.32 36 -38 36 C-38.20625 36.7425 -38.4125 37.485 -38.625 38.25 C-40 41 -40 41 -43.0625 42.9375 C-46.30357372 44.74470005 -46.30357372 44.74470005 -46.875 48.25 C-46.91625 49.1575 -46.9575 50.065 -47 51 C-47.66 51 -48.32 51 -49 51 C-49 50.34 -49 49.68 -49 49 C-52.12197478 50.3089572 -52.12197478 50.3089572 -54 53 C-54.61875 53.226875 -55.2375 53.45375 -55.875 53.6875 C-58.60054619 55.37092559 -58.91998436 57.22259566 -60.02734375 60.12109375 C-62.66051719 65.20766574 -67.73905165 68.19624628 -73 70 C-73.99 70.99 -73.99 70.99 -75 72 C-77.92341206 73.3492671 -79.75207316 74 -83 74 C-81.81292916 72.9578443 -80.62531359 71.91630907 -79.4375 70.875 C-78.70917969 70.235625 -77.98085937 69.59625 -77.23046875 68.9375 C-75.25729572 67.22350031 -73.25808429 65.54767758 -71.25 63.875 C-69.23298373 62.16098842 -67.75448638 60.68083229 -66.125 58.5625 C-64.20779804 56.25057999 -62.56934082 54.83668311 -60.1875 53.0625 C-54.7567582 48.9939844 -49.92879984 44.3291812 -45.0534668 39.62329102 C-44.42867432 39.02701904 -43.80388184 38.43074707 -43.16015625 37.81640625 C-42.59949463 37.27443604 -42.03883301 36.73246582 -41.46118164 36.17407227 C-40 35 -40 35 -38 35 C-38 34.34 -38 33.68 -38 33 C-36.3203125 31.4921875 -36.3203125 31.4921875 -34.125 29.875 C-33.40570313 29.33617188 -32.68640625 28.79734375 -31.9453125 28.2421875 C-30 27 -30 27 -28 27 C-27.92265625 26.42378906 -27.8453125 25.84757812 -27.765625 25.25390625 C-26.74341658 22.24464984 -25.14833867 20.99832412 -22.75 18.9375 C-21.98171875 18.26589844 -21.2134375 17.59429687 -20.421875 16.90234375 C-18 15 -18 15 -15.42578125 13.5 C-12.88452879 11.92859751 -11.33390965 10.35491167 -9.4375 8.0625 C-8.84453125 7.36253906 -8.2515625 6.66257812 -7.640625 5.94140625 C-7.09921875 5.30074219 -6.5578125 4.66007812 -6 4 C-2.3 0 -2.3 0 0 0 Z " fill="#ED8A5D" transform="translate(188,90)"/>
<path d="M0 0 C0.33 0 0.66 0 1 0 C1 49.5 1 99 1 150 C-7.91 150 -16.82 150 -26 150 C-26.01981934 148.10427246 -26.03963867 146.20854492 -26.06005859 144.25537109 C-26.12829128 137.93698403 -26.20509671 131.61874476 -26.28752708 125.30052757 C-26.3371175 121.47610351 -26.38344504 117.65170222 -26.421875 113.82714844 C-26.45920573 110.12467171 -26.50568251 106.42240512 -26.55806351 102.72011185 C-26.57635749 101.3194313 -26.59155367 99.91870617 -26.60334396 98.51795578 C-26.40603873 81.55575721 -26.40603873 81.55575721 -32 66 C-31.505 65.01 -31.505 65.01 -31 64 C-25.67458282 69.85795889 -24.76168779 75.75102375 -24.68115234 83.49584961 C-24.67110672 84.20888245 -24.6610611 84.92191528 -24.65071106 85.65655518 C-24.6200822 87.98847729 -24.60290117 90.3202857 -24.5859375 92.65234375 C-24.56720946 94.27902694 -24.54763484 95.90570059 -24.5272522 97.53236389 C-24.47609769 101.79507803 -24.43638314 106.05782361 -24.39910889 110.32067871 C-24.35896418 114.67805654 -24.30791977 119.03530548 -24.2578125 123.39257812 C-24.16125086 131.92830352 -24.07779186 140.46408288 -24 149 C-16.08 149 -8.16 149 0 149 C0 99.83 0 50.66 0 0 Z " fill="#DF7940" transform="translate(228,280)"/>
<path d="M0 0 C0.99 0 1.98 0 3 0 C4.01085341 3.03256023 4.1233603 5.04913184 4.12025452 8.22013855 C4.12162918 9.30127426 4.12300385 10.38240997 4.12442017 11.49630737 C4.12082489 12.68241608 4.11722961 13.86852478 4.11352539 15.09057617 C4.11367142 16.33947128 4.11381744 17.58836639 4.1139679 18.87510681 C4.11339013 22.30046333 4.10837085 25.72575976 4.10139394 29.15110564 C4.09514756 32.73056216 4.09455558 36.31001946 4.09336853 39.88948059 C4.09025901 46.66800456 4.08205072 53.44651242 4.07201904 60.22502929 C4.06084615 67.94199938 4.05534448 75.65897024 4.05032361 83.3759464 C4.0398678 99.25064027 4.02227568 115.12531806 4 131 C3.67 131 3.34 131 3 131 C2.67 92.39 2.34 53.78 2 14 C1.67 53.27 1.34 92.54 1 133 C0.67 133 0.34 133 0 133 C0 89.11 0 45.22 0 0 Z " fill="#FC5A10" transform="translate(313,223)"/>
<path d="M0 0 C1.12067871 0.02361099 2.24135742 0.04722198 3.39599609 0.07154846 C6.95164182 0.14770764 10.50704299 0.23193587 14.0625 0.31640625 C16.48306122 0.36967479 18.90363413 0.4224148 21.32421875 0.47460938 C27.23712823 0.60325765 33.14985819 0.73851935 39.0625 0.87890625 C39.5575 1.86890625 39.5575 1.86890625 40.0625 2.87890625 C38.97921921 2.88770561 38.97921921 2.88770561 37.87405396 2.89668274 C31.07561259 2.95453229 24.27745436 3.02656398 17.47934151 3.11462116 C13.98413513 3.15939235 10.48904712 3.19863294 6.99365234 3.2253418 C2.977236 3.25627215 -1.03854367 3.31106268 -5.0546875 3.3671875 C-6.31304413 3.37357742 -7.57140076 3.37996735 -8.8678894 3.3865509 C-10.60946823 3.41624214 -10.60946823 3.41624214 -12.38623047 3.4465332 C-13.92511429 3.46318779 -13.92511429 3.46318779 -15.49508667 3.48017883 C-16.70408127 3.6775489 -16.70408127 3.6775489 -17.9375 3.87890625 C-20.36640968 7.52227076 -20.20956194 9.30198931 -20.25634766 13.64526367 C-20.26639328 14.32845169 -20.2764389 15.01163971 -20.28678894 15.7155304 C-20.31765886 17.97180344 -20.33466632 20.22795762 -20.3515625 22.484375 C-20.37027112 24.04951503 -20.38984431 25.61464494 -20.4102478 27.17976379 C-20.46160748 31.29786213 -20.50121256 35.41599319 -20.53839111 39.53424072 C-20.57840679 43.73710244 -20.62951022 47.93982762 -20.6796875 52.14257812 C-20.77649217 60.38792761 -20.86088231 68.63334459 -20.9375 76.87890625 C-21.2675 76.87890625 -21.5975 76.87890625 -21.9375 76.87890625 C-21.98380689 67.41271687 -22.01936079 57.94656637 -22.04112434 48.48028851 C-22.05156888 44.08488151 -22.06574027 39.6895519 -22.08837891 35.29418945 C-22.11008344 31.0537267 -22.12206358 26.81333848 -22.12725449 22.57282448 C-22.13095454 20.95367064 -22.13817969 19.33452096 -22.14896011 17.71539879 C-22.16344339 15.45039375 -22.16547929 13.18569807 -22.16455078 10.9206543 C-22.168992 9.63047897 -22.17343323 8.34030365 -22.17800903 7.0110321 C-21.9375 3.87890625 -21.9375 3.87890625 -19.9375 0.87890625 C-13.33512155 -0.47925643 -6.71028192 -0.16887048 0 0 Z " fill="#F2AE95" transform="translate(331.9375,215.12109375)"/>
<path d="M0 0 C7.39562624 -0.49304175 7.39562624 -0.49304175 10.375 1.9375 C10.91125 2.618125 11.4475 3.29875 12 4 C12.66 4.33 13.32 4.66 14 5 C14.680625 6.7015625 14.680625 6.7015625 15.375 8.4375 C17.13540333 12.29684575 17.48064002 12.35763201 21 14 C21.75 16.625 21.75 16.625 22 19 C17.08634451 15.00765491 12.95361576 10.81410604 8.89453125 5.953125 C7.01640651 4.01691393 5.47059659 3.02987175 3 2 C2.79117188 2.54785156 2.58234375 3.09570312 2.3671875 3.66015625 C0.5007287 6.85446717 -2.11751931 9.03379681 -4.875 11.4375 C-8.64903913 14.747819 -11.90550146 18.01745552 -15 22 C-16.65002828 23.35386936 -18.3174387 24.68678142 -20 26 C-20.804375 26.804375 -21.60875 27.60875 -22.4375 28.4375 C-25.16637355 31.16637355 -28.00887264 33.56536145 -31 36 C-31 34.68 -31 33.36 -31 32 C-30.01 32 -29.02 32 -28 32 C-27.34 30.35 -26.68 28.7 -26 27 C-25.01 27 -24.02 27 -23 27 C-23 26.34 -23 25.68 -23 25 C-22.34 25 -21.68 25 -21 25 C-20.67 23.02 -20.34 21.04 -20 19 C-19.01 19 -18.02 19 -17 19 C-17 18.34 -17 17.68 -17 17 C-16.030625 16.38125 -15.06125 15.7625 -14.0625 15.125 C-10.89459901 13.34963648 -10.89459901 13.34963648 -10.125 10.75 C-10.08375 10.1725 -10.0425 9.595 -10 9 C-8.68 9 -7.36 9 -6 9 C-5.67 7.68 -5.34 6.36 -5 5 C-3.35 5 -1.7 5 0 5 C0 3.35 0 1.7 0 0 Z " fill="#EE815F" transform="translate(252,85)"/>
<path d="M0 0 C6.4004542 5.23183195 6.4004542 5.23183195 9 8.5625 C10.78870112 10.74247949 12.01278384 11.75594937 14.3125 13.25 C17.36903638 15.30503297 19.27794015 17.52197683 21.4375 20.5 C24.33776973 24.46150479 27.17540153 26.73991846 31.49609375 29.02734375 C31.99238281 29.34832031 32.48867188 29.66929687 33 30 C33 30.66 33 31.32 33 32 C33.928125 32.3403125 33.928125 32.3403125 34.875 32.6875 C37 34 37 34 38 36.5625 C38.495 37.7690625 38.495 37.7690625 39 39 C40.93618425 39.67156616 40.93618425 39.67156616 43 40 C44.75 41.375 44.75 41.375 46 43 C46 43.99 46 44.98 46 46 C46.9590625 46.185625 46.9590625 46.185625 47.9375 46.375 C48.618125 46.58125 49.29875 46.7875 50 47 C50.33 47.66 50.66 48.32 51 49 C45.38389681 47.72361291 44.0639048 45.69160422 41 41 C39.02477154 39.95191959 37.02518491 38.9479589 35 38 C33.98758315 36.67607028 32.98560611 35.34400833 32 34 C30.67139075 33.64830932 29.33841672 33.31229724 28 33 C27.67 32.01 27.34 31.02 27 30 C26.01 29.67 25.02 29.34 24 29 C24 28.34 24 27.68 24 27 C22.68 27 21.36 27 20 27 C19.84144531 26.44570312 19.68289063 25.89140625 19.51953125 25.3203125 C18.16219924 20.60945978 18.16219924 20.60945978 14.5 17.6875 C13.675 17.460625 12.85 17.23375 12 17 C10.1875 15.5 10.1875 15.5 9 14 C9 13.34 9 12.68 9 12 C8.34 12 7.68 12 7 12 C6.38125 10.63875 6.38125 10.63875 5.75 9.25 C4.10256403 6.19047606 2.46618157 4.38114082 0 2 C0 1.34 0 0.68 0 0 Z " fill="#E9815A" transform="translate(394,152)"/>
<path d="M0 0 C3.71599191 -0.20086443 4.77208445 -0.1519437 8 2 C7.67 2.66 7.34 3.32 7 4 C8.32 4.33 9.64 4.66 11 5 C11 5.66 11 6.32 11 7 C11.804375 7.28875 12.60875 7.5775 13.4375 7.875 C16 9 16 9 17 11 C17.99 11.33 18.98 11.66 20 12 C20.4640625 13.4540625 20.4640625 13.4540625 20.9375 14.9375 C21.68468021 18.10504047 21.68468021 18.10504047 24.125 19.375 C24.74375 19.58125 25.3625 19.7875 26 20 C26 20.66 26 21.32 26 22 C26.763125 22.268125 27.52625 22.53625 28.3125 22.8125 C30.94206561 23.97440108 32.13700992 24.88296582 34 27 C34.495 27.495 34.99 27.99 35.5 28.5 C36.53130261 29.53130261 37.55161332 30.57367785 38.5625 31.625 C39.972776 33.10933511 39.972776 33.10933511 42 34 C42 35.32 42 36.64 42 38 C42.99 38 43.98 38 45 38 C44.505 38.99 44.505 38.99 44 40 C36.71804054 35.87184693 30.81003298 29.97142279 25 24 C24.22914063 23.23042969 23.45828125 22.46085937 22.6640625 21.66796875 C20.95498476 19.95638503 19.25607765 18.23454935 17.5703125 16.5 C12.15299788 10.92318512 12.15299788 10.92318512 6.0625 6.125 C3.33997139 4.23589852 1.74476161 2.77109196 0 0 Z " fill="#F18A4B" transform="translate(295,123)"/>
<path d="M0 0 C9.9127789 1.8356998 9.9127789 1.8356998 14 5 C14 5.66 14 6.32 14 7 C16.03881414 9.41637231 17.49213254 10.82224639 20.5 11.875 C24.10032654 13.49514694 25.25603642 15.51207283 27 19 C26.75 22.375 26.75 22.375 26 25 C19.42541103 19.75834139 19.42541103 19.75834139 17.5625 16.4375 C15.53946682 13.28156824 13.11811742 12.11561601 9.92578125 10.25390625 C7.34327831 8.57239825 5.78613266 6.48782763 4 4 C2.68505488 2.64852862 1.35735142 1.30887458 0 0 Z " fill="#F8540F" transform="translate(379,202)"/>
<path d="M0 0 C5.29928793 4.6020132 6.74306598 8.66631986 7.2784729 15.61314392 C7.29179657 16.8944368 7.30512024 18.17572968 7.31884766 19.49584961 C7.32889328 20.20888245 7.3389389 20.92191528 7.34928894 21.65655518 C7.3799178 23.98847729 7.39709883 26.3202857 7.4140625 28.65234375 C7.43279054 30.27902694 7.45236516 31.90570059 7.4727478 33.53236389 C7.52390231 37.79507803 7.56361686 42.05782361 7.60089111 46.32067871 C7.64103582 50.67805654 7.69208023 55.03530548 7.7421875 59.39257812 C7.83874914 67.92830352 7.92220814 76.46408288 8 85 C15.92 85 23.84 85 32 85 C32 85.33 32 85.66 32 86 C23.42 86 14.84 86 6 86 C5.98018066 84.10427246 5.96036133 82.20854492 5.93994141 80.25537109 C5.87170872 73.93698403 5.79490329 67.61874476 5.71247292 61.30052757 C5.6628825 57.47610351 5.61655496 53.65170222 5.578125 49.82714844 C5.54079427 46.12467171 5.49431749 42.42240512 5.44193649 38.72011185 C5.42364251 37.3194313 5.40844633 35.91870617 5.39665604 34.51795578 C5.66694889 17.53147222 5.66694889 17.53147222 0 2 C0 1.34 0 0.68 0 0 Z " fill="#ECAB7E" transform="translate(196,344)"/>
<path d="M0 0 C1.32 0.33 2.64 0.66 4 1 C-0.28060254 6.7605981 -4.35430241 11.60967105 -10.265625 15.7109375 C-12.63360201 17.47092041 -14.18975429 19.68062269 -16 22 C-18.58876469 24.42626647 -21.28940905 26.71163572 -24 29 C-24.5878125 29.51433594 -25.175625 30.02867187 -25.78125 30.55859375 C-29.75885269 34 -29.75885269 34 -32 34 C-31.67 32.68 -31.34 31.36 -31 30 C-30.01 30 -29.02 30 -28 30 C-27.87625 29.360625 -27.7525 28.72125 -27.625 28.0625 C-27.41875 27.381875 -27.2125 26.70125 -27 26 C-26.34 25.67 -25.68 25.34 -25 25 C-24.67 24.01 -24.34 23.02 -24 22 C-23.34 22 -22.68 22 -22 22 C-22 21.34 -22 20.68 -22 20 C-21.236875 19.773125 -20.47375 19.54625 -19.6875 19.3125 C-16.42630188 17.71982185 -15.74776782 16.09831569 -14 13 C-13.01 12.67 -12.02 12.34 -11 12 C-10.67 11.34 -10.34 10.68 -10 10 C-9.236875 9.54625 -8.47375 9.0925 -7.6875 8.625 C-3.83555483 6.29591688 -1.43737407 4.31212221 0 0 Z " fill="#F3894A" transform="translate(165,167)"/>
<path d="M0 0 C4.9706343 0.74559514 8.54930368 2.89539122 12.75 5.5625 C12.75 6.2225 12.75 6.8825 12.75 7.5625 C11.1 7.5625 9.45 7.5625 7.75 7.5625 C7.75 6.9025 7.75 6.2425 7.75 5.5625 C1.03771594 4.35991139 1.03771594 4.35991139 -5.25 6.5625 C-6.219375 7.26375 -7.18875 7.965 -8.1875 8.6875 C-11.58063548 10.76492988 -13.35208412 10.93373008 -17.25 10.5625 C-17.559375 11.366875 -17.86875 12.17125 -18.1875 13 C-19.25 15.5625 -19.25 15.5625 -20.25 16.5625 C-21.91617115 16.60313832 -23.58388095 16.605221 -25.25 16.5625 C-25.476875 17.201875 -25.70375 17.84125 -25.9375 18.5 C-27.25 20.5625 -27.25 20.5625 -29.875 21.3125 C-30.65875 21.395 -31.4425 21.4775 -32.25 21.5625 C-31.92 20.9025 -31.59 20.2425 -31.25 19.5625 C-30.59 19.5625 -29.93 19.5625 -29.25 19.5625 C-29.023125 18.964375 -28.79625 18.36625 -28.5625 17.75 C-26.89390958 14.96901597 -25.1216168 13.9983084 -22.25 12.5625 C-21.59 12.5625 -20.93 12.5625 -20.25 12.5625 C-20.19328125 11.94375 -20.1365625 11.325 -20.078125 10.6875 C-19.25 8.5625 -19.25 8.5625 -16.921875 7.4375 C-15.95765625 7.14875 -14.9934375 6.86 -14 6.5625 C-10.48987539 5.42261417 -8.38550296 4.67336606 -5.5 2.3125 C-3.25 0.5625 -3.25 0.5625 0 0 Z " fill="#F07F32" transform="translate(168.25,328.4375)"/>
<path d="M0 0 C0.495 1.485 0.495 1.485 1 3 C0.67 3.66 0.34 4.32 0 5 C-0.66 5 -1.32 5 -2 5 C-2 4.34 -2 3.68 -2 3 C-5.12197478 4.3089572 -5.12197478 4.3089572 -7 7 C-7.61875 7.226875 -8.2375 7.45375 -8.875 7.6875 C-11.60054619 9.37092559 -11.91998436 11.22259566 -13.02734375 14.12109375 C-15.66051719 19.20766574 -20.73905165 22.19624628 -26 24 C-26.66 24.66 -27.32 25.32 -28 26 C-30.92341206 27.3492671 -32.75207316 28 -36 28 C-34.81292916 26.9578443 -33.62531359 25.91630907 -32.4375 24.875 C-31.70917969 24.235625 -30.98085937 23.59625 -30.23046875 22.9375 C-28.25729572 21.22350031 -26.25808429 19.54767758 -24.25 17.875 C-22.23298373 16.16098842 -20.75448638 14.68083229 -19.125 12.5625 C-14.80798713 7.35669036 -7.01819155 0 0 0 Z " fill="#F6722D" transform="translate(141,136)"/>
<path d="M0 0 C2.375 0.3125 2.375 0.3125 5 1 C5.66 1.99 6.32 2.98 7 4 C7.7425 4.268125 8.485 4.53625 9.25 4.8125 C12.47623636 6.20564752 14.14809442 7.98680822 16.47265625 10.5625 C17.95552201 12.11064955 17.95552201 12.11064955 20.04296875 12.94140625 C22.48564297 14.2626931 23.08190246 15.44833976 24.25 17.9375 C24.58515625 18.62714844 24.9203125 19.31679687 25.265625 20.02734375 C26 22 26 22 26 25 C24.25 24.875 24.25 24.875 22 24 C20.65668346 22.00669158 19.32405988 20.00615134 18 18 C15.41556677 16.26509754 15.41556677 16.26509754 13 15 C12.67 14.34 12.34 13.68 12 13 C11.01 12.67 10.02 12.34 9 12 C6.0208206 9.70832354 5.4952217 7.66464055 5 4 C4.01 4 3.02 4 2 4 C2 3.34 2 2.68 2 2 C1.34 2 0.68 2 0 2 C0 1.34 0 0.68 0 0 Z " fill="#F75819" transform="translate(273,45)"/>
<path d="M0 0 C19.47 0 38.94 0 59 0 C58.67 0.66 58.34 1.32 58 2 C39.52 2 21.04 2 2 2 C1.34 3.32 0.68 4.64 0 6 C0 4.02 0 2.04 0 0 Z " fill="#F39A65" transform="translate(228,274)"/>
<path d="M0 0 C18.48 0 36.96 0 56 0 C56 0.66 56 1.32 56 2 C54.9985495 2.0154612 54.9985495 2.0154612 53.97686768 2.03123474 C47.03395874 2.13933708 40.09117861 2.25393227 33.1484375 2.37231445 C30.55666801 2.41565128 27.96487021 2.45732725 25.37304688 2.49731445 C21.64965272 2.55504702 17.92640096 2.6187333 14.203125 2.68359375 C12.46231659 2.70866249 12.46231659 2.70866249 10.68634033 2.73423767 C9.06511261 2.7641555 9.06511261 2.7641555 7.41113281 2.79467773 C6.46071106 2.81022202 5.51028931 2.8257663 4.53106689 2.84178162 C2.21841825 2.98634656 0.2172773 3.34999254 -2 4 C-1.34 2.68 -0.68 1.36 0 0 Z " fill="#FD7F3A" transform="translate(314,218)"/>
<path d="M0 0 C0 0.99 0 1.98 0 3 C0.99 3 1.98 3 3 3 C2.62403791 5.78211944 2.32681541 7.5879284 0.5625 9.8125 C-1 11 -1 11 -3 11 C-3.20625 11.53625 -3.4125 12.0725 -3.625 12.625 C-5.52581703 15.90822941 -7.97641189 18.69191747 -11 21 C-11.99 21 -12.98 21 -14 21 C-13.6875 18.625 -13.6875 18.625 -13 16 C-12.01 15.34 -11.02 14.68 -10 14 C-9.69320312 13.23300781 -9.38640625 12.46601563 -9.0703125 11.67578125 C-7.81648733 8.54121833 -6.16056903 6.65738912 -3.875 4.1875 C-3.15054688 3.39730469 -2.42609375 2.60710937 -1.6796875 1.79296875 C-1.12539062 1.20128906 -0.57109375 0.60960937 0 0 Z " fill="#F95510" transform="translate(104,165)"/>
<path d="M0 0 C0.66 0.33 1.32 0.66 2 1 C-0.7357941 4.76171689 -2.23337655 6.66376164 -6.5625 8.5625 C-12.94494196 11.39508853 -17.16584907 17.38319432 -21.68164062 22.515625 C-23.38493325 24.43340633 -25.0949956 26.2804385 -27 28 C-27.66 28 -28.32 28 -29 28 C-29 27.01 -29 26.02 -29 25 C-28.236875 24.566875 -27.47375 24.13375 -26.6875 23.6875 C-23.34276445 21.58731721 -22.68142084 19.50905218 -21 16 C-19.69481525 14.96352976 -18.36538653 13.95577057 -17 13 C-16.67 12.01 -16.34 11.02 -16 10 C-14.35 9.67 -12.7 9.34 -11 9 C-11 8.01 -11 7.02 -11 6 C-5.25 3 -5.25 3 -3 3 C-3 2.34 -3 1.68 -3 1 C-2.01 0.67 -1.02 0.34 0 0 Z " fill="#EEA174" transform="translate(203,136)"/>
<path d="M0 0 C7.39562624 -0.49304175 7.39562624 -0.49304175 10.375 1.9375 C10.91125 2.618125 11.4475 3.29875 12 4 C12.66 4.33 13.32 4.66 14 5 C14.680625 6.7015625 14.680625 6.7015625 15.375 8.4375 C17.13540333 12.29684575 17.48064002 12.35763201 21 14 C21.75 16.625 21.75 16.625 22 19 C17.08634451 15.00765491 12.95361576 10.81410604 8.89453125 5.953125 C7.01640651 4.01691393 5.47059659 3.02987175 3 2 C2.566875 2.928125 2.566875 2.928125 2.125 3.875 C1 6 1 6 -1 8 C-3.625 8.125 -3.625 8.125 -6 8 C-5.67 7.01 -5.34 6.02 -5 5 C-3.35 5 -1.7 5 0 5 C0 3.35 0 1.7 0 0 Z " fill="#F17844" transform="translate(252,85)"/>
<path d="M0 0 C3.15497657 0.3380332 3.93381319 0.91933482 6 3.4375 C6.66 4.283125 7.32 5.12875 8 6 C10.11660427 7.31165257 10.11660427 7.31165257 12 8 C11.67 9.32 11.34 10.64 11 12 C12.32 12 13.64 12 15 12 C15.33 13.32 15.66 14.64 16 16 C16.66 16 17.32 16 18 16 C18 16.66 18 17.32 18 18 C15.13506824 17.9157373 13.46584707 17.4739994 11.4375 15.41015625 C10.41196179 14.15643578 9.40828648 12.88444271 8.4296875 11.59375 C6.9865905 9.72051898 6.9865905 9.72051898 4 9 C1.8125 7.25 1.8125 7.25 0 5 C-0.25 2.25 -0.25 2.25 0 0 Z " fill="#F65518" transform="translate(335,101)"/>
<path d="M0 0 C0.99 0.66 1.98 1.32 3 2 C3 2.66 3 3.32 3 4 C3.763125 4.268125 4.52625 4.53625 5.3125 4.8125 C7.94206561 5.97440108 9.13700992 6.88296582 11 9 C11.495 9.495 11.99 9.99 12.5 10.5 C13.53130261 11.53130261 14.55161332 12.57367785 15.5625 13.625 C16.972776 15.10933511 16.972776 15.10933511 19 16 C19 17.32 19 18.64 19 20 C19.99 20 20.98 20 22 20 C21.67 20.66 21.34 21.32 21 22 C17.47852792 20.00367252 14.49964224 17.83946499 11.5 15.125 C10.33404297 14.07119141 10.33404297 14.07119141 9.14453125 12.99609375 C6.70226073 10.72286928 4.35902799 8.35902799 2 6 C1.236875 5.443125 0.47375 4.88625 -0.3125 4.3125 C-0.869375 3.879375 -1.42625 3.44625 -2 3 C-2 2.34 -2 1.68 -2 1 C-1.34 0.67 -0.68 0.34 0 0 Z " fill="#F3A36A" transform="translate(318,141)"/>
<path d="M0 0 C1.98 0.495 1.98 0.495 4 1 C4 1.66 4 2.32 4 3 C4.66 3 5.32 3 6 3 C9.09741625 5.78767463 11.26142784 8.23309364 13 12 C8.1829589 11.88455893 4.89940822 11.62958576 0.875 8.8125 C-1 6 -1 6 -0.8125 2.6875 C-0.544375 1.800625 -0.27625 0.91375 0 0 Z " fill="#F55213" transform="translate(362,181)"/>
<path d="M0 0 C6.4004542 5.23183195 6.4004542 5.23183195 9 8.5625 C10.80885203 10.76703841 12.248453 11.97793337 14.5625 13.5625 C18.86771326 16.54019568 20.7120866 18.42956327 21.6875 23.75 C21.790625 24.8225 21.89375 25.895 22 27 C21.34 27 20.68 27 20 27 C19.84144531 26.44570312 19.68289063 25.89140625 19.51953125 25.3203125 C18.16219924 20.60945978 18.16219924 20.60945978 14.5 17.6875 C13.675 17.460625 12.85 17.23375 12 17 C10.1875 15.5 10.1875 15.5 9 14 C9 13.34 9 12.68 9 12 C8.34 12 7.68 12 7 12 C6.38125 10.63875 6.38125 10.63875 5.75 9.25 C4.10256403 6.19047606 2.46618157 4.38114082 0 2 C0 1.34 0 0.68 0 0 Z " fill="#EF7450" transform="translate(394,152)"/>
<path d="M0 0 C1.875 0.1875 1.875 0.1875 4 1 C4.70211894 2.65204456 5.36971413 4.31923769 6 6 C6.99 6.33 7.98 6.66 9 7 C9 7.66 9 8.32 9 9 C11.475 9.99 11.475 9.99 14 11 C14 11.99 14 12.98 14 14 C7.25 14.125 7.25 14.125 5 13 C4.87625 12.278125 4.7525 11.55625 4.625 10.8125 C3.83638069 7.26371309 2.04662428 4.97090622 0 2 C0 1.34 0 0.68 0 0 Z " fill="#FA5010" transform="translate(286,109)"/>
<path d="M0 0 C0.99 0.33 1.98 0.66 3 1 C2.27683594 1.47179687 2.27683594 1.47179687 1.5390625 1.953125 C-3.25371352 5.09388748 -3.25371352 5.09388748 -6 10 C-6.66 10 -7.32 10 -8 10 C-8.2475 10.5775 -8.495 11.155 -8.75 11.75 C-11.63349197 16.94028555 -15.93005493 19.27002958 -21 22 C-20.34 20.35 -19.68 18.7 -19 17 C-17.68 17 -16.36 17 -15 17 C-15 16.34 -15 15.68 -15 15 C-14.34 15 -13.68 15 -13 15 C-13 14.01 -13 13.02 -13 12 C-12.34 12 -11.68 12 -11 12 C-11 11.34 -11 10.68 -11 10 C-10.34 10 -9.68 10 -9 10 C-9 9.34 -9 8.68 -9 8 C-8.34 8 -7.68 8 -7 8 C-6.95875 7.4225 -6.9175 6.845 -6.875 6.25 C-5.52972773 2.79072845 -3.1826952 1.71865541 0 0 Z " fill="#EF8E62" transform="translate(125,207)"/>
<path d="M0 0 C0 0.66 0 1.32 0 2 C-0.66 2 -1.32 2 -2 2 C-2 2.99 -2 3.98 -2 5 C-3.375 6.6875 -3.375 6.6875 -5 8 C-5.66 8 -6.32 8 -7 8 C-7.66 9.32 -8.32 10.64 -9 12 C-9.66 12 -10.32 12 -11 12 C-11 12.99 -11 13.98 -11 15 C-12.65 15.33 -14.3 15.66 -16 16 C-16 16.66 -16 17.32 -16 18 C-17.96466413 19.06775224 -19.96855359 20.06553465 -22 21 C-22.66 20.67 -23.32 20.34 -24 20 C-23.48050781 19.62488281 -22.96101562 19.24976562 -22.42578125 18.86328125 C-18.27708866 15.81886173 -14.56023384 12.73390378 -11 9 C-9.44396668 7.38955992 -7.88091463 5.78588434 -6.3125 4.1875 C-5.54550781 3.39730469 -4.77851563 2.60710937 -3.98828125 1.79296875 C-2 0 -2 0 0 0 Z " fill="#F29862" transform="translate(188,90)"/>
<path d="M0 0 C1.32 0 2.64 0 4 0 C4 0.99 4 1.98 4 3 C2.30860001 4.40876396 0.50481911 5.4728077 -1.37109375 6.62109375 C-3.37556478 8.31792414 -3.44432257 9.49690258 -4 12 C-6.89111788 13.52164099 -8.71823412 14 -12 14 C-10.43903239 10.16853404 -8.08588695 7.71851946 -5 5 C-2.6875 4.1875 -2.6875 4.1875 -1 4 C-0.67 2.68 -0.34 1.36 0 0 Z " fill="#F84C0D" transform="translate(209,124)"/>
<path d="M0 0 C1.9375 0.75 1.9375 0.75 4 2 C4.75 4.125 4.75 4.125 5 6 C5.763125 6.0825 6.52625 6.165 7.3125 6.25 C10.54715191 7.15269355 11.35099265 8.13593461 13 11 C13 11.66 13 12.32 13 13 C13.61875 13.12375 14.2375 13.2475 14.875 13.375 C17 14 17 14 19 16 C9.642955 14.82378609 9.642955 14.82378609 7 11.4375 C6.67 10.633125 6.34 9.82875 6 9 C5.34 8.67 4.68 8.34 4 8 C4 7.34 4 6.68 4 6 C3.34 6 2.68 6 2 6 C1.34 4.02 0.68 2.04 0 0 Z " fill="#F29B6C" transform="translate(317,82)"/>
<path d="M0 0 C5.20540698 0.96396425 9.59913433 1.87680501 14 5 C13.34 6.65 12.68 8.3 12 10 C13.32 10.66 14.64 11.32 16 12 C12.89579221 11.92609029 10.73032773 11.6802072 8.40625 9.515625 C6.89283753 7.70879583 5.44630957 5.86070164 4 4 C2.68409365 2.64946454 1.35921586 1.30693833 0 0 Z " fill="#F36C2C" transform="translate(379,202)"/>
<path d="M0 0 C-2.06567864 2.75423819 -3.97693375 4.98176157 -6.6875 7.125 C-9.25247789 8.86120977 -9.25247789 8.86120977 -10 12 C-11.32 12 -12.64 12 -14 12 C-13.46537463 7.45568437 -11.95036951 4.49385863 -9 1 C-2.86538462 -1.43269231 -2.86538462 -1.43269231 0 0 Z " fill="#F45316" transform="translate(246,42)"/>
<path d="M0 0 C0.66 0 1.32 0 2 0 C1.67 0.99 1.34 1.98 1 3 C0.34 3 -0.32 3 -1 3 C-1 3.66 -1 4.32 -1 5 C-2.61974559 6.71230248 -4.2958946 8.37163262 -6 10 C-6.825 10.86625 -7.65 11.7325 -8.5 12.625 C-10.8943847 14.89966547 -13.03357146 16.5568726 -16 18 C-16.66 17.67 -17.32 17.34 -18 17 C-12.77117384 10.87549529 -7.62814262 5.58221084 -1 1 C-0.67 0.67 -0.34 0.34 0 0 Z " fill="#F6904B" transform="translate(206,72)"/>
<path d="M0 0 C0.66 0.33 1.32 0.66 2 1 C0 4 0 4 -2.5 5.1875 C-6.22127016 7.88542087 -6.19893979 10.55775702 -7 15 C-7.66 15 -8.32 15 -9 15 C-9.66 18.3 -10.32 21.6 -11 25 C-12.88343932 21.23312136 -13.22057835 19.97041037 -13 16 C-12.01 15.67 -11.02 15.34 -10 15 C-9.60955794 13.68225804 -9.29044914 12.34332728 -9 11 C-6.89200998 5.78549837 -4.38289428 3.31152013 0 0 Z " fill="#F18758" transform="translate(67,200)"/>
<path d="M0 0 C1.65 0 3.3 0 5 0 C5.309375 0.8353125 5.309375 0.8353125 5.625 1.6875 C6.98281221 3.97109326 8.07942786 4.9991561 10.125 6.625 C11.07375 7.40875 12.0225 8.1925 13 9 C13 9.66 13 10.32 13 11 C11.35 11 9.7 11 8 11 C7.67 10.34 7.34 9.68 7 9 C6.34 8.690625 5.68 8.38125 5 8.0625 C3 7 3 7 2 4 C1.34 3.67 0.68 3.34 0 3 C0 2.01 0 1.02 0 0 Z " fill="#F65B19" transform="translate(432,194)"/>
<path d="M0 0 C0 1.65 0 3.3 0 5 C-0.66 5 -1.32 5 -2 5 C-2 5.66 -2 6.32 -2 7 C-2.99 7.33 -3.98 7.66 -5 8 C-5.28875 8.66 -5.5775 9.32 -5.875 10 C-7 12 -7 12 -9.625 12.75 C-10.40875 12.8325 -11.1925 12.915 -12 13 C-9.85221716 7.90849127 -6.51514538 0 0 0 Z " fill="#F85812" transform="translate(231,105)"/>
<path d="M0 0 C3.37462715 0.54723683 5.08235 1.0549 8 3 C8 3.66 8 4.32 8 5 C9.32 5.33 10.64 5.66 12 6 C12 6.99 12 7.98 12 9 C12.99 9.33 13.98 9.66 15 10 C15 10.99 15 11.98 15 13 C13.68 12.67 12.36 12.34 11 12 C11 11.34 11 10.68 11 10 C9.68 9.67 8.36 9.34 7 9 C7 8.01 7 7.02 7 6 C6.21625 5.7525 5.4325 5.505 4.625 5.25 C1.67682892 3.84610901 1.0975223 2.99324263 0 0 Z " fill="#F55311" transform="translate(354,121)"/>
<path d="M0 0 C3.02467811 1.37181197 5.28886209 2.96535689 7.75 5.1875 C8.43835938 5.80496094 9.12671875 6.42242187 9.8359375 7.05859375 C10.55007813 7.69925781 11.26421875 8.33992188 12 9 C14.10974468 10.80993886 16.22065695 12.61840871 18.3359375 14.421875 C20 16 20 16 22 19 C19.19450778 17.85702169 17.71493626 16.70762693 15.5625 14.5 C13.01231548 12.01201511 11.24032276 11.26012552 8 10 C7.67 9.01 7.34 8.02 7 7 C6.01 7 5.02 7 4 7 C4 6.34 4 5.68 4 5 C2.68 4.67 1.36 4.34 0 4 C0 2.68 0 1.36 0 0 Z " fill="#F6A176" transform="translate(271,39)"/>
<path d="M0 0 C1.98 0 3.96 0 6 0 C2.8380541 3.43296983 0.51164617 5.72496956 -4 7 C-6.9577618 7.09047357 -9.86593531 6.87198782 -12.8125 6.625 C-13.99489258 6.53992188 -13.99489258 6.53992188 -15.20117188 6.453125 C-17.13489961 6.31249026 -19.06758595 6.15766112 -21 6 C-21 5.67 -21 5.34 -21 5 C-5.25512528 2.70387244 -5.25512528 2.70387244 2 3 C2 2.34 2 1.68 2 1 C1.34 0.67 0.68 0.34 0 0 Z " fill="#F1752C" transform="translate(447,468)"/>
<path d="M0 0 C3.55130633 1.18376878 4.75410675 2.00547566 7 5 C7.62914675 7.99102551 7.86964197 10.94962205 8 14 C5 13 5 13 3.3125 10.0625 C2 7 2 7 2 5 C1.01 5 0.02 5 -1 5 C-1.33 3.68 -1.66 2.36 -2 1 C-1.34 0.67 -0.68 0.34 0 0 Z " fill="#F7591B" transform="translate(447,205)"/>
<path d="M0 0 C0.33 0.66 0.66 1.32 1 2 C-3.27214996 8.87067417 -6.94029995 14.45483156 -15 17 C-15.99 17 -16.98 17 -18 17 C-16.81292916 15.9578443 -15.62531359 14.91630907 -14.4375 13.875 C-13.71046875 13.23691406 -12.9834375 12.59882813 -12.234375 11.94140625 C-10.23808384 10.20686656 -8.21687602 8.50798295 -6.1875 6.8125 C-3.75580728 4.74167492 -1.76100789 2.69330619 0 0 Z " fill="#F6995C" transform="translate(123,147)"/>
<path d="M0 0 C0.66 0.33 1.32 0.66 2 1 C-2.16880598 7.18133301 -7.20680822 9.25428159 -14 12 C-14.99 12.495 -14.99 12.495 -16 13 C-16 12.01 -16 11.02 -16 10 C-14.35 9.67 -12.7 9.34 -11 9 C-11 8.01 -11 7.02 -11 6 C-5.25 3 -5.25 3 -3 3 C-3 2.34 -3 1.68 -3 1 C-2.01 0.67 -1.02 0.34 0 0 Z " fill="#EF935C" transform="translate(203,136)"/>
<path d="M0 0 C1.65 0 3.3 0 5 0 C5 1.98 5 3.96 5 6 C4.01 6 3.02 6 2 6 C2 12.93 2 19.86 2 27 C1.67 27 1.34 27 1 27 C0.67 18.09 0.34 9.18 0 0 Z " fill="#F45114" transform="translate(136,350)"/>
<path d="M0 0 C6.45927694 2.03005847 9.98157014 6.79092426 14 12 C11.69 11.67 9.38 11.34 7 11 C7 10.01 7 9.02 7 8 C6.34 8 5.68 8 5 8 C4.67 6.68 4.34 5.36 4 4 C2.68 4 1.36 4 0 4 C0 2.68 0 1.36 0 0 Z " fill="#F3733C" transform="translate(346,109)"/>
<path d="M0 0 C5.69501756 4.65519694 10.5464324 8.84376118 13 16 C10.69 15.01 8.38 14.02 6 13 C6.33 12.01 6.66 11.02 7 10 C6.01 10 5.02 10 4 10 C3.71125 9.030625 3.4225 8.06125 3.125 7.0625 C2.35785318 3.89335797 2.35785318 3.89335797 0 3 C0 2.01 0 1.02 0 0 Z " fill="#F3853E" transform="translate(303,67)"/>
<path d="M0 0 C3.59412911 1.33496224 6.92170156 2.69127617 10 5 C10.8125 7.6875 10.8125 7.6875 11 10 C11.66 10 12.32 10 13 10 C13 10.66 13 11.32 13 12 C9.66272214 10.82744291 7.22562513 9.81131596 5 7 C5 6.34 5 5.68 5 5 C2.525 4.01 2.525 4.01 0 3 C0 2.01 0 1.02 0 0 Z " fill="#F45616" transform="translate(390,154)"/>
<path d="M0 0 C-0.59433774 3.57405801 -1.98599852 5.50113335 -4.375 8.1875 C-4.98085937 8.88230469 -5.58671875 9.57710937 -6.2109375 10.29296875 C-8 12 -8 12 -11 13 C-11 12.01 -11 11.02 -11 10 C-11.66 9.67 -12.32 9.34 -13 9 C-12.360625 8.896875 -11.72125 8.79375 -11.0625 8.6875 C-10.0415625 8.3471875 -10.0415625 8.3471875 -9 8 C-8.67 7.01 -8.34 6.02 -8 5 C-3.58139535 0 -3.58139535 0 0 0 Z " fill="#F75013" transform="translate(227,57)"/>
<path d="M0 0 C3.875 2.625 3.875 2.625 5 6 C5.0833804 8.13794525 5.10733747 10.27842009 5.09765625 12.41796875 C5.09443359 13.67158203 5.09121094 14.92519531 5.08789062 16.21679688 C5.07951172 17.52712891 5.07113281 18.83746094 5.0625 20.1875 C5.05748317 21.52278481 5.05292059 22.85807141 5.04882812 24.19335938 C5.03702695 27.46228473 5.02056297 30.73111991 5 34 C4.67 34 4.34 34 4 34 C4 26.08 4 18.16 4 10 C3.34 10 2.68 10 2 10 C2 8.02 2 6.04 2 4 C1.34 4 0.68 4 0 4 C0 2.68 0 1.36 0 0 Z " fill="#EB8349" transform="translate(454,210)"/>
<path d="M0 0 C0.86625 0.7425 1.7325 1.485 2.625 2.25 C5.61516127 4.74892049 8.72359435 6.89373923 12 9 C11.67 10.32 11.34 11.64 11 13 C9.0625 12.6875 9.0625 12.6875 7 12 C6.67 11.01 6.34 10.02 6 9 C5.01 8.67 4.02 8.34 3 8 C3 7.34 3 6.68 3 6 C2.34 6 1.68 6 1 6 C0.67 4.02 0.34 2.04 0 0 Z " fill="#EF864D" transform="translate(415,173)"/>
<path d="M0 0 C-4.66666667 4.66666667 -9.33333333 9.33333333 -14 14 C-14.33 13.34 -14.66 12.68 -15 12 C-14.34 11.67 -13.68 11.34 -13 11 C-12.690625 10.195625 -12.38125 9.39125 -12.0625 8.5625 C-11 6 -11 6 -8 4 C-7.27617533 1.94074861 -7.27617533 1.94074861 -7 0 C-3.98968256 -0.93423645 -3.13349732 -1.04449911 0 0 Z " fill="#F1A37C" transform="translate(249,94)"/>
<path d="M0 0 C0.33 0 0.66 0 1 0 C1.125 2.875 1.125 2.875 1 6 C-1 8 -1 8 -3.625 8.125 C-4.40875 8.08375 -5.1925 8.0425 -6 8 C-6.226875 8.639375 -6.45375 9.27875 -6.6875 9.9375 C-8 12 -8 12 -10.625 12.75 C-11.40875 12.8325 -12.1925 12.915 -13 13 C-12.67 12.34 -12.34 11.68 -12 11 C-11.34 11 -10.68 11 -10 11 C-9.773125 10.401875 -9.54625 9.80375 -9.3125 9.1875 C-7.64390958 6.40651597 -5.8716168 5.4358084 -3 4 C-2.34 4 -1.68 4 -1 4 C-0.67 2.68 -0.34 1.36 0 0 Z " fill="#F1884D" transform="translate(149,337)"/>
<path d="M0 0 C0.66 0 1.32 0 2 0 C1.67 1.65 1.34 3.3 1 5 C0.34 5 -0.32 5 -1 5 C-1 5.66 -1 6.32 -1 7 C-1.66 7 -2.32 7 -3 7 C-3 7.99 -3 8.98 -3 10 C-4.32 10.33 -5.64 10.66 -7 11 C-7.33 9.68 -7.66 8.36 -8 7 C-7.05125 6.401875 -6.1025 5.80375 -5.125 5.1875 C-1.86035803 3.18437474 -1.86035803 3.18437474 0 0 Z " fill="#F64D0D" transform="translate(115,212)"/>
<path d="M0 0 C4.27346366 3.71116581 5.97792241 6.42503134 7 12 C7.13918833 15.00934778 7.12283525 17.99053648 7 21 C6.34 21 5.68 21 5 21 C4.89042969 20.04738281 4.78085938 19.09476562 4.66796875 18.11328125 C4.50941406 16.85902344 4.35085937 15.60476563 4.1875 14.3125 C4.03667969 13.07113281 3.88585937 11.82976562 3.73046875 10.55078125 C3.00932247 7.04531617 1.94271758 4.95399523 0 2 C0 1.34 0 0.68 0 0 Z " fill="#F3AF87" transform="translate(196,344)"/>
<path d="M0 0 C2.64 0 5.28 0 8 0 C8.33 0.66 8.66 1.32 9 2 C10.64363134 2.72159424 12.31050386 3.39351421 14 4 C14 4.33 14 4.66 14 5 C3.44191344 4.03644647 3.44191344 4.03644647 -1 3 C-0.67 2.01 -0.34 1.02 0 0 Z " fill="#FA5912" transform="translate(254,36)"/>
<path d="M0 0 C6.11238801 3.63547261 10.23665643 6.93009101 14 13 C10.41209425 12.70100785 9.21833224 12.23013399 6.6875 9.5625 C5 7 5 7 5 5 C3.68 4.67 2.36 4.34 1 4 C0.67 2.68 0.34 1.36 0 0 Z " fill="#F1A076" transform="translate(370,131)"/>
<path d="M0 0 C6.59229145 -0.7013076 10.49376557 1.50397814 16 5 C16 5.66 16 6.32 16 7 C14.35 7 12.7 7 11 7 C11 6.34 11 5.68 11 5 C7.34920174 3.38935371 3.9492568 2.55105909 0 2 C0 1.34 0 0.68 0 0 Z " fill="#EC8444" transform="translate(165,329)"/>
<path d="M0 0 C1.98 0.99 3.96 1.98 6 3 C6 3.99 6 4.98 6 6 C6.66 6 7.32 6 8 6 C8 6.66 8 7.32 8 8 C5.69 7.67 3.38 7.34 1 7 C1 6.34 1 5.68 1 5 C0.34 5 -0.32 5 -1 5 C-0.67 3.35 -0.34 1.7 0 0 Z " fill="#F65815" transform="translate(406,222)"/>
<path d="M0 0 C1.32 0.33 2.64 0.66 4 1 C2.73755365 2.65227538 1.46474765 4.29663951 0.1875 5.9375 C-0.87404297 7.31228516 -0.87404297 7.31228516 -1.95703125 8.71484375 C-4 11 -4 11 -7 12 C-6.52570343 7.73133091 -3.96478822 5.89066852 -1 3 C-0.67 2.01 -0.34 1.02 0 0 Z " fill="#F19F72" transform="translate(165,167)"/>
<path d="M0 0 C-0.55850154 3.56820431 -1.72198677 4.99571058 -4.5 7.25 C-5.1290625 7.77078125 -5.758125 8.2915625 -6.40625 8.828125 C-8 10 -8 10 -9 10 C-9 8.35 -9 6.7 -9 5 C-8.360625 4.896875 -7.72125 4.79375 -7.0625 4.6875 C-6.381875 4.460625 -5.70125 4.23375 -5 4 C-4.67 3.01 -4.34 2.02 -4 1 C-2 0 -2 0 0 0 Z " fill="#F9510C" transform="translate(139,139)"/>
<path d="M0 0 C3.71599191 -0.20086443 4.77208445 -0.1519437 8 2 C7.67 2.66 7.34 3.32 7 4 C8.32 4.33 9.64 4.66 11 5 C11 5.66 11 6.32 11 7 C11.66 7.33 12.32 7.66 13 8 C9.61111395 8.38730126 8.26204576 8.17469717 5.375 6.25 C3.28798539 4.27282826 1.60973036 2.37223421 0 0 Z " fill="#EE7538" transform="translate(295,123)"/>
<path d="M0 0 C4 0 4 0 6.75 2.375 C9 5 9 5 9 7 C7.5199159 6.88637738 6.04089926 6.75877092 4.5625 6.625 C3.73878906 6.55539063 2.91507812 6.48578125 2.06640625 6.4140625 C1.38449219 6.27742187 0.70257813 6.14078125 0 6 C-1.24546405 3.50907189 -0.7767578 2.58919267 0 0 Z " fill="#F34A13" transform="translate(378,197)"/>
<path d="M0 0 C1.70884005 1.62339805 3.37446717 3.29319053 5 5 C5 5.66 5 6.32 5 7 C6.65 7 8.3 7 10 7 C10.33 8.65 10.66 10.3 11 12 C5.3131651 9.37530697 0.86405658 6.72811315 -2 1 C-1.34 0.67 -0.68 0.34 0 0 Z " fill="#EE784B" transform="translate(351,173)"/>
<path d="M0 0 C0.99 0 1.98 0 3 0 C3 2.31 3 4.62 3 7 C2.01 7.33 1.02 7.66 0 8 C-0.33 8.99 -0.66 9.98 -1 11 C-1.99 11 -2.98 11 -4 11 C-3.71125 10.29875 -3.4225 9.5975 -3.125 8.875 C-1.97866412 5.94547497 -0.97374346 2.99078347 0 0 Z " fill="#F65711" transform="translate(453,456)"/>
<path d="M0 0 C4.43458973 1.3937282 6.87378374 3.60582235 10 7 C7.69 7 5.38 7 3 7 C2.67 6.01 2.34 5.02 2 4 C1.01 3.67 0.02 3.34 -1 3 C-0.67 2.01 -0.34 1.02 0 0 Z " fill="#F5823D" transform="translate(182,335)"/>
<path d="M0 0 C0 2 0 2 -1.25 3.375 C-1.8275 3.91125 -2.405 4.4475 -3 5 C-3.680625 5.721875 -4.36125 6.44375 -5.0625 7.1875 C-7 9 -7 9 -9 9 C-9.66 10.32 -10.32 11.64 -11 13 C-11.33 11.68 -11.66 10.36 -12 9 C-6.25 4 -6.25 4 -4 4 C-4 3.01 -4 2.02 -4 1 C-2 0 -2 0 0 0 Z " fill="#E76439" transform="translate(217,123)"/>
<path d="M0 0 C2 3 2 3 2 7 C0.125 8.0625 0.125 8.0625 -2 9 C-2.66 8.67 -3.32 8.34 -4 8 C-4.25 5.6875 -4.25 5.6875 -4 3 C-2 1.1875 -2 1.1875 0 0 Z " fill="#F75E22" transform="translate(219,115)"/>
<path d="M0 0 C-0.2578125 1.88671875 -0.2578125 1.88671875 -1 4 C-2.7421875 5.08203125 -2.7421875 5.08203125 -4.875 5.8125 C-5.92300781 6.19341797 -5.92300781 6.19341797 -6.9921875 6.58203125 C-9 7 -9 7 -12 6 C-8.40461874 2.91824463 -4.933456 0 0 0 Z " fill="#F47637" transform="translate(250,36)"/>
<path d="M0 0 C2.97 0.33 5.94 0.66 9 1 C11 6.75 11 6.75 11 9 C10.34 9 9.68 9 9 9 C8.401875 8.236875 7.80375 7.47375 7.1875 6.6875 C4.97419457 3.96829618 3.02873349 2.68262972 0 1 C0 0.67 0 0.34 0 0 Z " fill="#EF865B" transform="translate(367,192)"/>
<path d="M0 0 C1.875 0.25 1.875 0.25 4 1 C5.0625 2.9375 5.0625 2.9375 6 5 C6.99 5.66 7.98 6.32 9 7 C9 7.99 9 8.98 9 10 C7.68 10 6.36 10 5 10 C4.67 8.68 4.34 7.36 4 6 C3.34 6 2.68 6 2 6 C1.34 4.02 0.68 2.04 0 0 Z " fill="#F84E0E" transform="translate(269,93)"/>
<path d="M0 0 C3.39455284 1.13151761 4.57997478 2.4287232 7 5 C7.8971875 5.7425 7.8971875 5.7425 8.8125 6.5 C9.204375 6.995 9.59625 7.49 10 8 C9.57421875 10.09375 9.57421875 10.09375 9 12 C7.68181446 10.56771184 6.37063296 9.12897516 5.0625 7.6875 C4.33160156 6.88699219 3.60070312 6.08648437 2.84765625 5.26171875 C1 3 1 3 0 0 Z " fill="#F18754" transform="translate(395,215)"/>
<path d="M0 0 C0.33 0.99 0.66 1.98 1 3 C0.38125 3.061875 -0.2375 3.12375 -0.875 3.1875 C-1.926875 3.5896875 -1.926875 3.5896875 -3 4 C-3.309375 4.804375 -3.61875 5.60875 -3.9375 6.4375 C-5 9 -5 9 -7.625 10.3125 C-8.40875 10.539375 -9.1925 10.76625 -10 11 C-9.64701919 8.0991395 -9.11271704 7.10483324 -6.93359375 5.078125 C-6.10988281 4.47484375 -5.28617187 3.8715625 -4.4375 3.25 C-3.61121094 2.63640625 -2.78492187 2.0228125 -1.93359375 1.390625 C-1.29550781 0.93171875 -0.65742187 0.4728125 0 0 Z " fill="#F0A06E" transform="translate(81,188)"/>
<path d="M0 0 C1.98 0.495 1.98 0.495 4 1 C3.938125 2.093125 3.87625 3.18625 3.8125 4.3125 C3.64402086 7.92126083 3.64402086 7.92126083 5.5 9.9375 C5.995 10.288125 6.49 10.63875 7 11 C4.31756099 10.61679443 2.90198589 9.92847619 0.6875 8.3125 C-1 6 -1 6 -0.75 2.75 C-0.5025 1.8425 -0.255 0.935 0 0 Z " fill="#EF5A34" transform="translate(362,181)"/>
<path d="M0 0 C0.66 0 1.32 0 2 0 C2.2475 0.61875 2.495 1.2375 2.75 1.875 C4.20628639 4.35068687 5.37812506 4.95125002 8 6 C8 7.32 8 8.64 8 10 C8.99 10 9.98 10 11 10 C10.67 10.66 10.34 11.32 10 12 C6.01757765 9.83811358 2.9503138 7.45608188 0 4 C0 2.68 0 1.36 0 0 Z " fill="#F48D3F" transform="translate(329,151)"/>
<path d="M0 0 C0.66 0.33 1.32 0.66 2 1 C-0.14822047 4.2223307 -1.7274751 5.08437567 -5 7 C-6.75149165 8.58245275 -6.75149165 8.58245275 -8 10 C-8.66 9.67 -9.32 9.34 -10 9 C-9.1875 7.0625 -9.1875 7.0625 -8 5 C-7.01 4.67 -6.02 4.34 -5 4 C-4.34 3.01 -3.68 2.02 -3 1 C-2.01 0.67 -1.02 0.34 0 0 Z " fill="#F6520B" transform="translate(152,127)"/>
<path d="M0 0 C0.33 1.32 0.66 2.64 1 4 C-0.32 4 -1.64 4 -3 4 C-3.33 5.65 -3.66 7.3 -4 9 C-4.66 9 -5.32 9 -6 9 C-6.36521739 3.52173913 -6.36521739 3.52173913 -4.6875 1.125 C-3 0 -3 0 0 0 Z " fill="#F47E41" transform="translate(166,111)"/>
<path d="M0 0 C0 3.6026412 -1.17803615 4.96901452 -3.48828125 7.63671875 C-5.72852527 9.65699049 -8.10395457 10.32650106 -11 11 C-7.75269769 6.03353764 -5.12779375 2.98127544 0 0 Z " fill="#F38D63" transform="translate(235,45)"/>
<path d="M0 0 C2.25 0.125 2.25 0.125 5 1 C7.3125 4.0625 7.3125 4.0625 9 7 C7.35 7 5.7 7 4 7 C4 6.34 4 5.68 4 5 C2.68 4.34 1.36 3.68 0 3 C0 2.01 0 1.02 0 0 Z " fill="#F8591C" transform="translate(352,173)"/>
<path d="M0 0 C0 0.99 0 1.98 0 3 C0.99 3 1.98 3 3 3 C2.67 4.65 2.34 6.3 2 8 C1.01 8.33 0.02 8.66 -1 9 C-1.33 8.01 -1.66 7.02 -2 6 C-2.66 6 -3.32 6 -4 6 C-2.84826645 3.53199953 -1.95216435 1.95216435 0 0 Z " fill="#E64C1B" transform="translate(104,165)"/>
<path d="M0 0 C7.57142857 4 7.57142857 4 10 8 C8.02 8 6.04 8 4 8 C3.67 6.68 3.34 5.36 3 4 C2.34 4 1.68 4 1 4 C0.67 2.68 0.34 1.36 0 0 Z " fill="#F19562" transform="translate(384,144)"/>
<path d="M0 0 C1.29905098 0.7371359 2.58901122 1.49030556 3.875 2.25 C4.59429687 2.66765625 5.31359375 3.0853125 6.0546875 3.515625 C8.20874162 5.15928076 8.99140585 6.51567335 10 9 C8.35 8.67 6.7 8.34 5 8 C5 7.34 5 6.68 5 6 C3.35 5.67 1.7 5.34 0 5 C0 3.35 0 1.7 0 0 Z " fill="#EF6B3C" transform="translate(287,54)"/>
<path d="M0 0 C0.66 0 1.32 0 2 0 C2.33 0.99 2.66 1.98 3 3 C3.66 3.33 4.32 3.66 5 4 C5.625 6.5625 5.625 6.5625 6 9 C6.66 9 7.32 9 8 9 C8 9.99 8 10.98 8 12 C7.34 12 6.68 12 6 12 C3.70351351 9.4385343 3 8.52032428 3 5 C2.01 4.67 1.02 4.34 0 4 C0 2.68 0 1.36 0 0 Z " fill="#EF8B6B" transform="translate(54,458)"/>
<path d="M0 0 C2.56687367 3.8503105 1.83288724 5.58569763 1 10 C0.01 10.33 -0.98 10.66 -2 11 C-2.33 11.99 -2.66 12.98 -3 14 C-3 12.68 -3 11.36 -3 10 C-2.34 10 -1.68 10 -1 10 C-1.01160156 9.36191406 -1.02320313 8.72382813 -1.03515625 8.06640625 C-1.04417969 7.24011719 -1.05320312 6.41382813 -1.0625 5.5625 C-1.07410156 4.73878906 -1.08570313 3.91507812 -1.09765625 3.06640625 C-1 1 -1 1 0 0 Z " fill="#F69867" transform="translate(457,453)"/>
<path d="M0 0 C0.33 0.99 0.66 1.98 1 3 C-0.52994792 4.23697917 -2.05989583 5.47395833 -3.58984375 6.7109375 C-5.13266437 7.9666391 -5.13266437 7.9666391 -6 10 C-7.32 9.67 -8.64 9.34 -10 9 C-6.83047153 5.73991357 -3.60062011 2.77762123 0 0 Z " fill="#F09672" transform="translate(94,176)"/>
<path d="M0 0 C1.98 0 3.96 0 6 0 C2.17819158 4.4008703 -0.47371099 5.80805531 -6 7 C-6 6.34 -6 5.68 -6 5 C-5.34 5 -4.68 5 -4 5 C-4 4.34 -4 3.68 -4 3 C-2.02 3 -0.04 3 2 3 C2 2.34 2 1.68 2 1 C1.34 0.67 0.68 0.34 0 0 Z " fill="#ED8954" transform="translate(447,468)"/>
<path d="M0 0 C0.66 0 1.32 0 2 0 C2 0.66 2 1.32 2 2 C2.63808594 2.10957031 3.27617187 2.21914062 3.93359375 2.33203125 C4.75988281 2.49058594 5.58617187 2.64914063 6.4375 2.8125 C7.67306641 3.03873047 7.67306641 3.03873047 8.93359375 3.26953125 C9.95646484 3.63111328 9.95646484 3.63111328 11 4 C12.15941038 7.47823115 11.70820884 9.45895578 11 13 C10.67 13 10.34 13 10 13 C10 10.36 10 7.72 10 5 C8.906875 5.103125 7.81375 5.20625 6.6875 5.3125 C4.8621875 5.1578125 4.8621875 5.1578125 3 5 C1.0625 2.5 1.0625 2.5 0 0 Z " fill="#F2824F" transform="translate(405,227)"/>
<path d="M0 0 C2.375 0.3125 2.375 0.3125 5 1 C5.66 1.99 6.32 2.98 7 4 C7.66 4.33 8.32 4.66 9 5 C9.625 7.5625 9.625 7.5625 10 10 C9.5875 9.54625 9.175 9.0925 8.75 8.625 C7.09803069 6.9119597 7.09803069 6.9119597 5 6.125 C2.31636528 4.61545547 1.41094277 2.68079126 0 0 Z " fill="#F35621" transform="translate(390,209)"/>
<path d="M0 0 C0 0.99 0 1.98 0 3 C-0.721875 3.226875 -1.44375 3.45375 -2.1875 3.6875 C-5.52439237 5.24471644 -7.44948006 7.38054709 -10 10 C-10.66 10 -11.32 10 -12 10 C-12 9.34 -12 8.68 -12 8 C-11.34 8 -10.68 8 -10 8 C-10 7.34 -10 6.68 -10 6 C-8.3203125 4.4921875 -8.3203125 4.4921875 -6.125 2.875 C-5.40570313 2.33617188 -4.68640625 1.79734375 -3.9453125 1.2421875 C-2 0 -2 0 0 0 Z " fill="#F1874F" transform="translate(160,117)"/>
<path d="M0 0 C0 3.57870074 -0.64872567 4.39680342 -3 7 C-5.0625 8.3125 -5.0625 8.3125 -7 9 C-7.66 8.67 -8.32 8.34 -9 8 C-8.01 7.67 -7.02 7.34 -6 7 C-6 6.01 -6 5.02 -6 4 C-5.34 4 -4.68 4 -4 4 C-4 3.34 -4 2.68 -4 2 C-2.68 1.34 -1.36 0.68 0 0 Z " fill="#FA732A" transform="translate(192,88)"/>
<path d="M0 0 C-0.47050781 0.31453125 -0.94101563 0.6290625 -1.42578125 0.953125 C-4.88002433 3.32747014 -7.72778504 5.39118801 -10 9 C-10.4375 6.8125 -10.4375 6.8125 -10 4 C-6.84483974 0.78546844 -4.45282842 -1.48427614 0 0 Z " fill="#EBA473" transform="translate(128,208)"/>
<path d="M0 0 C0.66 0 1.32 0 2 0 C2 0.66 2 1.32 2 2 C2.639375 2.103125 3.27875 2.20625 3.9375 2.3125 C4.618125 2.539375 5.29875 2.76625 6 3 C6.33 3.99 6.66 4.98 7 6 C9.00016466 7.20882096 9.00016466 7.20882096 11 8 C8.00309792 7.86060921 5.77158295 7.69781403 3.48828125 5.6328125 C0 1.45487106 0 1.45487106 0 0 Z " fill="#E37A56" transform="translate(384,206)"/>
<path d="M0 0 C0.5775 0.226875 1.155 0.45375 1.75 0.6875 C-1.2405167 4.02307632 -4.18184627 5.83833921 -8.25 7.6875 C-6.86345583 3.41232214 -5.12511737 -0.71182186 0 0 Z " fill="#F37735" transform="translate(111.25,162.3125)"/>
<path d="M0 0 C3.16115776 1.36983503 3.9927092 1.9890638 6 5 C5.67 5.99 5.34 6.98 5 8 C3.0625 7.375 3.0625 7.375 1 6 C0.25 2.875 0.25 2.875 0 0 Z " fill="#EF7F45" transform="translate(192,342)"/>
<path d="M0 0 C0.33 0.99 0.66 1.98 1 3 C0.67 3.66 0.34 4.32 0 5 C-0.66 5 -1.32 5 -2 5 C-2 4.34 -2 3.68 -2 3 C-3.65 3.66 -5.3 4.32 -7 5 C-6.6875 3.0625 -6.6875 3.0625 -6 1 C-3 0 -3 0 0 0 Z " fill="#F76D32" transform="translate(141,136)"/>
<path d="M0 0 C2.76262553 0.3810518 3.84143894 0.83597132 5.8125 2.875 C6.204375 3.57625 6.59625 4.2775 7 5 C6.67 5.99 6.34 6.98 6 8 C1.125 3.375 1.125 3.375 0 0 Z " fill="#EF875B" transform="translate(285,113)"/>
<path d="M0 0 C-0.33 1.65 -0.66 3.3 -1 5 C-1.99 5.33 -2.98 5.66 -4 6 C-4.33 6.66 -4.66 7.32 -5 8 C-5.66 8 -6.32 8 -7 8 C-6.44414399 4.1090079 -4.34122117 0 0 0 Z " fill="#F7470E" transform="translate(230,107)"/>
<path d="M0 0 C7.48291572 6.15034169 7.48291572 6.15034169 10 10 C6.7991535 9.65705216 6.04586025 9.05558818 3.9375 6.5 C3.298125 5.675 2.65875 4.85 2 4 C1.01 3.67 0.02 3.34 -1 3 C-0.67 2.01 -0.34 1.02 0 0 Z " fill="#F1915F" transform="translate(336,98)"/>
<path d="M0 0 C3.3 0.33 6.6 0.66 10 1 C9.34 2.32 8.68 3.64 8 5 C5.36 3.68 2.72 2.36 0 1 C0 0.67 0 0.34 0 0 Z " fill="#F95D14" transform="translate(63,468)"/>
<path d="M0 0 C1.1549921 0.73581742 2.29874185 1.48930039 3.4375 2.25 C4.07558594 2.66765625 4.71367187 3.0853125 5.37109375 3.515625 C7.29902057 5.27248877 7.61479436 6.46089803 8 9 C4.125 7.25 4.125 7.25 3 5 C2.01 4.67 1.02 4.34 0 4 C0 2.68 0 1.36 0 0 Z " fill="#F79667" transform="translate(446,201)"/>
<path d="M0 0 C-1.39253532 3.48133831 -2.63176216 4.47886033 -6 6 C-6.33 6.66 -6.66 7.32 -7 8 C-6.62952882 5.25851328 -6.31412056 3.41406801 -4.625 1.1875 C-3 0 -3 0 0 0 Z " fill="#F26D3E" transform="translate(102,171)"/>
<path d="M0 0 C1.9375 1.125 1.9375 1.125 4 3 C4.75 6.1875 4.75 6.1875 5 9 C4.01 9.33 3.02 9.66 2 10 C2 8.02 2 6.04 2 4 C1.34 4 0.68 4 0 4 C0 2.68 0 1.36 0 0 Z " fill="#F49761" transform="translate(454,210)"/>
<path d="M0 0 C2.91517292 1.07401108 4.77810176 1.77810176 7 4 C7 4.99 7 5.98 7 7 C6.34 7 5.68 7 5 7 C5 6.34 5 5.68 5 5 C2.525 4.01 2.525 4.01 0 3 C0 2.01 0 1.02 0 0 Z " fill="#F84B09" transform="translate(390,154)"/>
<path d="M0 0 C0.66 0 1.32 0 2 0 C4.36214538 2.64846603 5.87172132 4.61516396 7 8 C4.13275314 7.42655063 3.1385485 7.1385485 1 5 C0.375 2.375 0.375 2.375 0 0 Z " fill="#F29362" transform="translate(324,147)"/>
<path d="M0 0 C0.66 0.33 1.32 0.66 2 1 C0.4375 3.5 0.4375 3.5 -2 6 C-5.75 6.3125 -5.75 6.3125 -9 6 C-5.25 3 -5.25 3 -3 3 C-3 2.34 -3 1.68 -3 1 C-2.01 0.67 -1.02 0.34 0 0 Z " fill="#F4885A" transform="translate(203,136)"/>
<path d="M0 0 C0.66 0.33 1.32 0.66 2 1 C1.25 5.75 1.25 5.75 -1 8 C-3.625 8.125 -3.625 8.125 -6 8 C-5.67 7.01 -5.34 6.02 -5 5 C-3.35 5 -1.7 5 0 5 C0 3.35 0 1.7 0 0 Z " fill="#F2882F" transform="translate(252,85)"/>
<path d="M0 0 C1.32 0 2.64 0 4 0 C4 0.99 4 1.98 4 3 C1 5 1 5 -1.1875 4.625 C-1.785625 4.41875 -2.38375 4.2125 -3 4 C-1.75 2 -1.75 2 0 0 Z " fill="#EE7D42" transform="translate(212,67)"/>
<path d="M0 0 C3.71599191 -0.20086443 4.77208445 -0.1519437 8 2 C8 2.99 8 3.98 8 5 C7.01 5 6.02 5 5 5 C5 4.34 5 3.68 5 3 C4.360625 2.87625 3.72125 2.7525 3.0625 2.625 C2.381875 2.41875 1.70125 2.2125 1 2 C0.67 1.34 0.34 0.68 0 0 Z " fill="#E57741" transform="translate(62,470)"/>
<path d="M0 0 C0.99 0 1.98 0 3 0 C1.98823563 3.40320742 1.35156418 4.75725331 -1.625 6.8125 C-2.40875 7.204375 -3.1925 7.59625 -4 8 C-4.33 7.34 -4.66 6.68 -5 6 C-4.01 5.67 -3.02 5.34 -2 5 C-0.78130071 2.49552484 -0.78130071 2.49552484 0 0 Z " fill="#F27C3A" transform="translate(83,186)"/>
<path d="M0 0 C4.55015893 1.51671964 6.50057264 5.16891053 9 9 C4.5937814 7.65365543 2.56922298 5.80625626 0 2 C0 1.34 0 0.68 0 0 Z " fill="#F28A70" transform="translate(351,112)"/>
<path d="M0 0 C-0.1875 1.8125 -0.1875 1.8125 -1 4 C-3.4375 5.8125 -3.4375 5.8125 -6 7 C-6.66 6.67 -7.32 6.34 -8 6 C-7.0479279 4.99403703 -6.08812654 3.99538437 -5.125 3 C-4.59132812 2.443125 -4.05765625 1.88625 -3.5078125 1.3125 C-2 0 -2 0 0 0 Z " fill="#F29563" transform="translate(196,83)"/>
<path d="M0 0 C0.33 1.32 0.66 2.64 1 4 C0.01 4.33 -0.98 4.66 -2 5 C-2.73323796 7.01508358 -2.73323796 7.01508358 -3 9 C-3.66 9 -4.32 9 -5 9 C-4.42647107 5.12867972 -2.51295648 2.91827204 0 0 Z " fill="#F2956F" transform="translate(221,57)"/>
<path d="M0 0 C3.26954202 0.56371414 4.82575883 1.49962266 7 4 C6.67 4.99 6.34 5.98 6 7 C6 6.34 6 5.68 6 5 C5.38125 4.9175 4.7625 4.835 4.125 4.75 C2 4 2 4 0.75 1.9375 C0.5025 1.298125 0.255 0.65875 0 0 Z " fill="#F85916" transform="translate(424,187)"/>
<path d="M0 0 C0.33 0.66 0.66 1.32 1 2 C-0.76227632 5.61730402 -2.64326421 7.80075931 -6 10 C-6.66 9.67 -7.32 9.34 -8 9 C-5.36 6.03 -2.72 3.06 0 0 Z " fill="#F4A567" transform="translate(123,147)"/>
<path d="M0 0 C4.43090471 1.20842856 6.98112756 2.51668565 10 6 C9.01 6.495 9.01 6.495 8 7 C7.34 6.67 6.68 6.34 6 6 C6 5.34 6 4.68 6 4 C5.195625 3.71125 4.39125 3.4225 3.5625 3.125 C1 2 1 2 0 0 Z " fill="#EE6C44" transform="translate(356,120)"/>
<path d="M0 0 C0.66 0 1.32 0 2 0 C1.52797514 4.24822374 -0.96655518 6.19989709 -4 9 C-4.33 8.34 -4.66 7.68 -5 7 C-4.34 6.67 -3.68 6.34 -3 6 C-2.29788106 4.34795544 -1.63028587 2.68076231 -1 1 C-0.67 0.67 -0.34 0.34 0 0 Z " fill="#F09862" transform="translate(239,99)"/>
<path d="M0 0 C5.75 -0.125 5.75 -0.125 8 1 C8 1.66 8 2.32 8 3 C5.69 3 3.38 3 1 3 C0.67 2.01 0.34 1.02 0 0 Z " fill="#F2793D" transform="translate(262,36)"/>
<path d="M0 0 C0.66 0 1.32 0 2 0 C1.42655063 2.86724686 1.1385485 3.8614515 -1 6 C-3.125 5.625 -3.125 5.625 -5 5 C-4.01 4.67 -3.02 4.34 -2 4 C-0.79117904 1.99983534 -0.79117904 1.99983534 0 0 Z " fill="#EF9C75" transform="translate(141,344)"/>
<path d="M0 0 C0.66 0.33 1.32 0.66 2 1 C-0.64 3.64 -3.28 6.28 -6 9 C-6.33 8.34 -6.66 7.68 -7 7 C-2.25 1.125 -2.25 1.125 0 0 Z " fill="#F6BA90" transform="translate(145,189)"/>
<path d="M0 0 C5.75 4.75 5.75 4.75 8 7 C5.69 6.67 3.38 6.34 1 6 C0.67 4.02 0.34 2.04 0 0 Z " fill="#F2AD79" transform="translate(415,173)"/>
<path d="M0 0 C4 3 4 3 4.75 6.6875 C4.8325 7.780625 4.915 8.87375 5 10 C4.34 10 3.68 10 3 10 C2.01 6.7 1.02 3.4 0 0 Z " fill="#F18446" transform="translate(411,169)"/>
<path d="M0 0 C0.33 1.32 0.66 2.64 1 4 C-4.2734375 7.22265625 -4.2734375 7.22265625 -6 8 C-6.66 7.67 -7.32 7.34 -8 7 C-5.36 4.69 -2.72 2.38 0 0 Z " fill="#F08261" transform="translate(133,139)"/>
<path d="M0 0 C0.66 0.99 1.32 1.98 2 3 C2 2.34 2 1.68 2 1 C2.99 1 3.98 1 5 1 C5 1.66 5 2.32 5 3 C2.09399739 4.25664978 0.20395416 5 -3 5 C-1.125 1.125 -1.125 1.125 0 0 Z " fill="#F25717" transform="translate(200,133)"/>
<path d="M0 0 C1.1446875 0.495 1.1446875 0.495 2.3125 1 C4.99069135 2.17436686 4.99069135 2.17436686 8 2 C8 2.66 8 3.32 8 4 C1.25 4.125 1.25 4.125 -1 3 C-0.67 2.01 -0.34 1.02 0 0 Z " fill="#EE4F29" transform="translate(292,119)"/>
<path d="M0 0 C4.84455959 2.37823834 4.84455959 2.37823834 7 4 C7.9375 6.75 7.9375 6.75 8 9 C6.84775972 8.07038578 5.70340824 7.1309875 4.5625 6.1875 C3.60537109 5.40439453 3.60537109 5.40439453 2.62890625 4.60546875 C1 3 1 3 0 0 Z " fill="#F59770" transform="translate(266,95)"/>
<path d="M0 0 C1.14926266 0.95421808 2.29430541 1.91352045 3.4375 2.875 C4.07558594 3.40867187 4.71367187 3.94234375 5.37109375 4.4921875 C7 6 7 6 8 8 C6.35 7.67 4.7 7.34 3 7 C2.67 6.01 2.34 5.02 2 4 C1.34 3.67 0.68 3.34 0 3 C0 2.01 0 1.02 0 0 Z " fill="#E9A788" transform="translate(303,67)"/>
<path d="M0 0 C-2.98646769 1.99097846 -5.59687262 2.94124926 -9 4 C-9 2.68 -9 1.36 -9 0 C-5.93109813 -1.53445094 -3.29905734 -0.54984289 0 0 Z " fill="#F16330" transform="translate(171,331)"/>
<path d="M0 0 C3.3125 -0.1875 3.3125 -0.1875 7 0 C7.99 0.99 8.98 1.98 10 3 C6.7 2.67 3.4 2.34 0 2 C0 1.34 0 0.68 0 0 Z " fill="#EE975D" transform="translate(165,329)"/>
<path d="M0 0 C0.66 0 1.32 0 2 0 C0.5361389 4.39158329 -1.97831338 4.87947433 -6 7 C-5.34 5.35 -4.68 3.7 -4 2 C-2.68 2 -1.36 2 0 2 C0 1.34 0 0.68 0 0 Z " fill="#EA7F4A" transform="translate(110,222)"/>
<path d="M0 0 C0.66 0 1.32 0 2 0 C1.67 1.32 1.34 2.64 1 4 C0.34 4 -0.32 4 -1 4 C-1 4.99 -1 5.98 -1 7 C-1.66 7 -2.32 7 -3 7 C-3 5.35 -3 3.7 -3 2 C-2.01 2 -1.02 2 0 2 C0 1.34 0 0.68 0 0 Z " fill="#F27839" transform="translate(235,102)"/>
<path d="M0 0 C0.66 0 1.32 0 2 0 C3.4606285 2.64738916 4 3.89448334 4 7 C2.68 6.67 1.36 6.34 0 6 C0 4.02 0 2.04 0 0 Z " fill="#F1571A" transform="translate(295,63)"/>
<path d="M0 0 C0.66 0.33 1.32 0.66 2 1 C-1.44615385 5.8 -1.44615385 5.8 -4.25 6.8125 C-5.11625 6.9053125 -5.11625 6.9053125 -6 7 C-5.34 5.68 -4.68 4.36 -4 3 C-3.34 3 -2.68 3 -2 3 C-2 2.34 -2 1.68 -2 1 C-1.34 0.67 -0.68 0.34 0 0 Z " fill="#F84E08" transform="translate(244,41)"/>
<path d="M0 0 C0.66 0 1.32 0 2 0 C1.8125 2.375 1.8125 2.375 1 5 C-1.5625 6.3125 -1.5625 6.3125 -4 7 C-3.67 5.68 -3.34 4.36 -3 3 C-2.01 3 -1.02 3 0 3 C0 2.01 0 1.02 0 0 Z " fill="#F29D68" transform="translate(137,194)"/>
<path d="M0 0 C1.32 0.33 2.64 0.66 4 1 C4.33 2.32 4.66 3.64 5 5 C2.525 4.01 2.525 4.01 0 3 C0 2.01 0 1.02 0 0 Z " fill="#FA4F09" transform="translate(335,103)"/>
<path d="M0 0 C1.98 0.99 3.96 1.98 6 3 C6 3.99 6 4.98 6 6 C4.125 5.8125 4.125 5.8125 2 5 C0.75 2.4375 0.75 2.4375 0 0 Z " fill="#ED8649" transform="translate(297,64)"/>
<path d="M0 0 C1.9375 0.75 1.9375 0.75 4 2 C4.75 4.125 4.75 4.125 5 6 C4.01 6 3.02 6 2 6 C1.34 4.02 0.68 2.04 0 0 Z " fill="#E19360" transform="translate(317,82)"/>
<path d="" fill="#FFFFFF" transform="translate(0,0)"/>
<path d="" fill="#FFFFFF" transform="translate(0,0)"/>
<path d="" fill="#FFFFFF" transform="translate(0,0)"/>
<path d="" fill="#FFFFFF" transform="translate(0,0)"/>
<path d="" fill="#FFFFFF" transform="translate(0,0)"/>
<path d="" fill="#FFFFFF" transform="translate(0,0)"/>
<path d="" fill="#FFFFFF" transform="translate(0,0)"/>
<path d="" fill="#FFFFFF" transform="translate(0,0)"/>
<path d="" fill="#FFFFFF" transform="translate(0,0)"/>
<path d="" fill="#FFFFFF" transform="translate(0,0)"/>
<path d="" fill="#FFFFFF" transform="translate(0,0)"/>
<path d="" fill="#FFFFFF" transform="translate(0,0)"/>
<path d="" fill="#FFFFFF" transform="translate(0,0)"/>
<path d="" fill="#FFFFFF" transform="translate(0,0)"/>
<path d="" fill="#FFFFFF" transform="translate(0,0)"/>
<path d="" fill="#FFFFFF" transform="translate(0,0)"/>
<path d="" fill="#FFFFFF" transform="translate(0,0)"/>
<path d="" fill="#FFFFFF" transform="translate(0,0)"/>
<path d="" fill="#FFFFFF" transform="translate(0,0)"/>
<path d="" fill="#FFFFFF" transform="translate(0,0)"/>
<path d="" fill="#FFFFFF" transform="translate(0,0)"/>
<path d="" fill="#FFFFFF" transform="translate(0,0)"/>
<path d="" fill="#FFFFFF" transform="translate(0,0)"/>
<path d="" fill="#FFFFFF" transform="translate(0,0)"/>
<path d="" fill="#FFFFFF" transform="translate(0,0)"/>
<path d="" fill="#FFFFFF" transform="translate(0,0)"/>
<path d="" fill="#FFFFFF" transform="translate(0,0)"/>
<path d="" fill="#FFFFFF" transform="translate(0,0)"/>
<path d="" fill="#FFFFFF" transform="translate(0,0)"/>
<path d="" fill="#FFFFFF" transform="translate(0,0)"/>
<path d="" fill="#FFFFFF" transform="translate(0,0)"/>
</svg>
